<?xml version="1.0" standalone="no"?>
<!DOCTYPE svg PUBLIC "-//W3C//DTD SVG 1.1//EN" "http://www.w3.org/Graphics/SVG/1.1/DTD/svg11.dtd" >
<svg xmlns="http://www.w3.org/2000/svg">
<metadata>
Created by FontPrep 20130207 at Sat Jan 30 10:57:20 2016
 By Patrick HENG
Copyright (c) 2012 by James T. Edmondson. All rights reserved.
</metadata>
<defs>
<font id="dffdf410eda6d0e903115099b5e24d7c" horiz-adv-x='1024' >
  <font-face 
    font-family="Edmondsans-Medium"
    font-weight="410"
    font-stretch="normal"
    units-per-em="2048"
    panose-1="2 0 0 0 0 0 0 0 0 0"
    ascent="1536"
    descent="-512"
    x-height="967"
    cap-height="1434"
    bbox="-248 -639 2003 1907"
    underline-thickness="102"
    underline-position="-102"
    unicode-range="U+0020-FB02"
  />
<missing-glyph horiz-adv-x="684" 
 />
    <glyph glyph-name="fi" unicode="fi" horiz-adv-x="1071" 
d="M700 1220q0 62 45 107t107 45t108 -45t46 -107t-45 -108t-107 -45q-62 0 -109 45q-45 46 -45 108zM961 0h-218v967h218v-967zM625 778h-222v-778h-217v778h-149v189h149v235q0 164 96 262t235 98q140 0 224 -79l-98 -162q-39 47 -103 47t-100 -45t-37 -129v-227h222v-189
z" />
    <glyph glyph-name="fl" unicode="fl" horiz-adv-x="962" 
d="M1053 0h-217v1536h217v-1536zM635 778h-221v-778h-217v778h-150v189h150v235q0 164 95 262t235 98t225 -79l-99 -162q-39 47 -103 47t-100 -45t-36 -129v-227h221v-189z" />
    <glyph glyph-name=".notdef" horiz-adv-x="684" 
 />
    <glyph glyph-name=".null" 
 />
    <glyph glyph-name="nonmarkingreturn" horiz-adv-x="681" 
 />
    <glyph glyph-name="space" unicode=" " horiz-adv-x="614" 
 />
    <glyph glyph-name="exclam" unicode="!" horiz-adv-x="520" 
d="M109 132q0 62 45 108t107 45q61 0 107 -45q46 -46 46 -108t-45 -107t-107 -45t-108 45q-45 45 -45 107zM358 455h-198l-10 979h219z" />
    <glyph glyph-name="quotedbl" unicode="&#x22;" horiz-adv-x="501" 
d="M449 1114h-162l-11 320h183zM215 1114h-162l-10 320h182z" />
    <glyph glyph-name="numbersign" unicode="#" horiz-adv-x="1212" 
d="M485 870v-245h242v245h-242zM485 0h-182v442h-260v183h260v245h-260v183h260v381h182v-381h242v381h182v-381h262v-183h-262v-245h262v-183h-262v-442h-182v442h-242v-442z" />
    <glyph glyph-name="dollar" unicode="$" horiz-adv-x="1017" 
d="M414 -156v144q-117 20 -208 92t-136 190l186 107q35 -94 102 -147q68 -52 159 -52t147 60t55 144q0 82 -57 150q-56 68 -138 127t-163 124t-138 153t-57 196t72 196q72 87 182 114v155h186v-155q133 -35 209 -152l-158 -129q-63 96 -143 96q-57 -1 -94 -39t-37 -96
t57 -115q56 -59 138 -117t164 -126t138 -163q58 -95 58 -204q0 -155 -94 -267t-244 -140v-146h-186z" />
    <glyph glyph-name="percent" unicode="%" horiz-adv-x="1501" 
d="M1129 160q54 0 94 38q39 38 39 92t-39 93t-93 39t-93 -39q-38 -39 -38 -93t38 -92t92 -38zM1129 -6q-123 0 -209 86t-86 210t86 210t210 86t209 -86q86 -86 86 -210t-86 -210t-210 -86zM351 1012q54 0 93 38t39 92t-39 92t-93 38t-92 -38t-38 -92t38 -92t92 -38zM351 846
q-124 0 -210 86t-86 210t86 210t210 86t210 -86t86 -210t-86 -210t-210 -86zM358 0h-227l983 1434h227z" />
    <glyph glyph-name="ampersand" unicode="&#x26;" horiz-adv-x="1263" 
d="M457 1155q0 -88 88 -197q113 76 112 203q0 45 -25 77q-26 32 -72 32t-74 -33t-29 -82zM504 172q162 0 284 152l-327 411q-219 -135 -219 -301q0 -122 72 -192t190 -70zM29 426q0 272 327 438q-4 4 -4 6q-102 126 -102 266t92 229t228 89t211 -84t75 -199
q0 -209 -211 -335l252 -312q53 152 72 303h205q-35 -250 -148 -462l207 -254l-164 -129q-57 68 -168 206q-180 -209 -405 -208q-193 0 -330 120t-137 326z" />
    <glyph glyph-name="quotesingle" unicode="'" horiz-adv-x="284" 
d="M223 1114h-162l-10 320h182z" />
    <glyph glyph-name="parenleft" unicode="(" horiz-adv-x="561" 
d="M328 1546l166 -100q-220 -284 -220 -736t220 -737q-119 -68 -164 -96q-272 330 -273 840q1 510 271 829z" />
    <glyph glyph-name="parenright" unicode=")" horiz-adv-x="561" 
d="M272 710q0 456 -217 736l166 100q271 -319 271 -829t-273 -840q-45 29 -164 96q217 281 217 737z" />
    <glyph glyph-name="asterisk" unicode="*" horiz-adv-x="720" 
d="M45 1257l76 136q29 -15 83 -51t81 -52l-4 195h155q-6 -193 -6 -195l166 103l76 -136l-166 -90l166 -90l-74 -135q-57 33 -168 102l6 -194h-155l6 194l-168 -102l-74 135q55 29 166 90z" />
    <glyph glyph-name="plus" unicode="+" horiz-adv-x="907" 
d="M82 692v172h285v287h172v-287h286v-172h-286v-284h-172v284h-285z" />
    <glyph glyph-name="comma" unicode="," horiz-adv-x="505" 
d="M90 133q0 61 44 107t119 45t119 -59t44 -157t-64 -197t-166 -134l-67 110q69 35 98 85q10 17 21 36l8 19q-63 0 -110 42q-46 42 -46 103z" />
    <glyph glyph-name="hyphen" unicode="-" horiz-adv-x="661" 
d="M580 487h-498v172h498v-172z" />
    <glyph glyph-name="period" unicode="." horiz-adv-x="522" 
d="M109 132q0 62 45 108t107 45q61 0 107 -45q46 -46 46 -108t-45 -107t-107 -45t-108 45q-45 45 -45 107z" />
    <glyph glyph-name="slash" unicode="/" horiz-adv-x="727" 
d="M-37 -205l574 1843h223l-574 -1843h-223z" />
    <glyph glyph-name="zero" unicode="0" horiz-adv-x="1388" 
d="M291 717q0 -231 104 -382t299 -151t299 151t105 382q0 231 -104 381t-300 150q-197 0 -300 -150t-103 -381zM1313 720q0 -320 -165 -530t-454 -210q-290 0 -454 210t-164 530t164 528q164 206 454 206t455 -207q164 -207 164 -527z" />
    <glyph glyph-name="one" unicode="1" horiz-adv-x="833" 
d="M739 0h-606v195h195v1001l-152 -78l-84 174l287 142h166v-1239h194v-195z" />
    <glyph glyph-name="two" unicode="2" horiz-adv-x="1134" 
d="M1018 0h-901v172q91 61 220 170q128 110 216 206t160 228q71 130 71 238t-60 170t-150 63q-90 0 -149 -58q-60 -57 -60 -149t24 -155l-205 -62q-41 72 -41 195q0 196 128 314q127 118 309 118t304 -111t122 -309q0 -123 -54 -251q-54 -129 -146 -241q-156 -193 -335 -341
q115 14 211 14h336v-211z" />
    <glyph glyph-name="three" unicode="3" horiz-adv-x="1097" 
d="M535 -20q-292 0 -429 208q-27 41 -32 72l180 88q15 -44 58 -89q86 -91 211 -90q126 1 196 82q69 81 69 193t-67 185q-68 72 -186 71h-68v174q90 0 150 60q61 60 61 144t-45 130t-103 47q-58 0 -100 -41q-41 -41 -43 -112h-213q0 168 106 261t252 93t252 -92t107 -254
q0 -197 -154 -297q131 -37 200 -139t69 -230q0 -200 -128 -332t-343 -132z" />
    <glyph glyph-name="four" unicode="4" horiz-adv-x="1095" 
d="M614 520v504l-325 -504h325zM831 0h-217v332h-563v151l608 951h172v-914h191v-188h-191v-332z" />
    <glyph glyph-name="five" unicode="5" horiz-adv-x="1191" 
d="M936 1229h-539v-307q94 55 215 55q242 0 369 -141t127 -350q0 -210 -139 -358t-389 -148q-117 0 -215 36q-159 57 -248 187q-33 47 -41 84q61 31 184 96q23 -57 107 -130q83 -73 219 -73t219 92q82 92 82 218t-80 216q-80 91 -219 91q-61 0 -132 -30t-96 -73l-163 94v646
h739v-205z" />
    <glyph glyph-name="six" unicode="6" horiz-adv-x="1181" 
d="M605 168q132 0 208 95t76 222t-73 216t-207 89t-211 -90q-76 -92 -76 -220t76 -220t207 -92zM606 -18q-236 0 -370 164t-136 419q0 313 168 562t488 333l67 -186q-106 -31 -195 -86q-88 -56 -140 -114q-106 -121 -134 -202l-12 -34l2 -2q115 135 321 135q207 -1 327 -141
t120 -344t-134 -355q-136 -149 -372 -149z" />
    <glyph glyph-name="seven" unicode="7" horiz-adv-x="999" 
d="M342 0q0 256 65 523t130 420q66 153 137 280h-592v211h829v-170q-53 -87 -118 -232q-66 -145 -112 -284t-82 -345t-34 -403h-223z" />
    <glyph glyph-name="eight" unicode="8" horiz-adv-x="1153" 
d="M578 885q80 0 122 58t43 140q0 81 -44 139q-45 58 -123 58t-123 -57t-45 -139t45 -141q45 -58 125 -58zM309 433q0 -111 71 -189t197 -78q125 0 195 79t70 189t-70 192q-70 81 -196 81t-196 -81q-71 -81 -71 -193zM578 -20q-229 0 -357 129q-127 129 -127 307
q0 126 67 234t193 161q-152 96 -151 285q0 146 98 252q97 106 275 106t277 -106t99 -250q0 -190 -151 -287q125 -53 191 -159t67 -234q0 -178 -126 -308t-355 -130z" />
    <glyph glyph-name="nine" unicode="9" horiz-adv-x="1214" 
d="M601 1272q-132 0 -208 -95t-76 -223t73 -216q73 -89 207 -89t211 91q77 92 77 220t-76 220t-208 92zM600 1460q236 0 371 -166t135 -420q0 -313 -168 -562t-487 -330l-68 184q105 31 195 86q90 56 141 114q105 121 133 201l12 35l-2 2q-114 -135 -320 -135t-327 140
t-121 345t134 356q136 150 372 150z" />
    <glyph glyph-name="colon" unicode=":" horiz-adv-x="520" 
d="M109 132q0 62 45 108t107 45q61 0 107 -45q46 -46 46 -108t-45 -107t-107 -45t-108 45q-45 45 -45 107zM109 691q0 61 45 107t107 46q61 0 107 -45t46 -107t-45 -108q-45 -45 -107 -45t-108 45q-45 45 -45 107z" />
    <glyph glyph-name="semicolon" unicode=";" horiz-adv-x="507" 
d="M109 691q0 61 45 107t107 46q61 0 107 -45t46 -107t-45 -108q-45 -45 -107 -45t-108 45q-45 45 -45 107zM117 140q0 56 40 96q39 40 107 40t109 -53t41 -142t-58 -179t-151 -121q-55 86 -62 100q80 42 111 119l4 8q-57 0 -99 38t-42 94z" />
    <glyph glyph-name="less" unicode="&#x3c;" horiz-adv-x="665" 
d="M604 477l-127 -129l-426 426l426 426l127 -127l-299 -299z" />
    <glyph glyph-name="equal" unicode="=" horiz-adv-x="880" 
d="M758 860h-635v172h635v-172zM758 522h-635v172h635v-172z" />
    <glyph glyph-name="greater" unicode="&#x3e;" horiz-adv-x="663" 
d="M188 348l-129 129l240 238q45 45 61 59l-301 299l129 127l426 -426z" />
    <glyph glyph-name="question" unicode="?" horiz-adv-x="970" 
d="M705 1052q1 93 -57 144t-149 51t-153 -57t-63 -156q0 -57 20 -119l-205 -59q-29 53 -28 176q0 194 130 308t311 114t297 -106t116 -278t-152 -329q-66 -67 -96 -101t-58 -102q-30 -68 -26 -139h-223q-8 143 67 255q41 60 66 89t82 91q121 125 121 218zM338 132
q0 62 45 108t107 45q62 0 108 -45q46 -46 45 -108q0 -62 -45 -107q-46 -45 -108 -45t-107 45t-45 107z" />
    <glyph glyph-name="at" unicode="@" horiz-adv-x="1714" 
d="M633 666q0 -104 61 -179q60 -75 162 -75t156 75q53 77 53 181t-53 179t-155 75t-163 -76t-61 -180zM866 -139q-342 0 -575 234q-233 235 -233 577t234 580t575 237q341 0 567 -237t225 -576q0 -221 -108 -340t-246 -119q-74 0 -136 38q-61 38 -88 105
q-100 -124 -273 -124t-273 128q-101 128 -101 303t100 303t283 128q147 0 242 -105v84h194v-602q0 -55 25 -86t63 -31q66 0 119 84t53 234q0 282 -183 478t-464 196t-464 -196t-183 -482q1 -286 187 -478t460 -192q233 0 404 137l86 -114q-220 -164 -490 -164z" />
    <glyph glyph-name="A" unicode="A" horiz-adv-x="1208" 
d="M565 1024l-129 -430h336l-129 434q-29 86 -39 158q-8 -58 -39 -162zM950 0l-119 397h-454l-119 -397h-233l462 1434h232l463 -1434h-232z" />
    <glyph glyph-name="B" unicode="B" horiz-adv-x="1196" 
d="M401 895h121q98 0 150 53q51 54 51 134t-44 130t-128 52h-150v-369zM401 184h197q125 0 196 75q70 75 70 180t-71 184q-72 78 -193 77h-199v-516zM545 0h-361v1434h387q173 0 269 -96t96 -256q0 -162 -143 -248q135 -48 213 -152t77 -244q0 -198 -135 -318t-403 -120z
" />
    <glyph glyph-name="C" unicode="C" horiz-adv-x="1447" 
d="M86 715q0 305 214 521t525 216t529 -233l-160 -146q-168 172 -380 172q-212 -1 -360 -155t-148 -374t148 -375t361 -155t385 179l162 -142q-222 -243 -536 -243t-527 215t-213 520z" />
    <glyph glyph-name="D" unicode="D" horiz-adv-x="1425" 
d="M639 195q215 0 340 144t125 405t-131 377t-389 116h-181v-1042h236zM643 0h-459v1434h400q739 0 739 -699q1 -347 -187 -541t-493 -194z" />
    <glyph glyph-name="E" unicode="E" horiz-adv-x="1136" 
d="M1004 0h-820v1434h820v-199h-603v-385h453v-197h-453v-456h603v-197z" />
    <glyph glyph-name="F" unicode="F" horiz-adv-x="991" 
d="M164 1434h760v-203h-543v-381h405v-203h-405v-649l-217 2v1434z" />
    <glyph glyph-name="G" unicode="G" horiz-adv-x="1525" 
d="M96 715q0 305 214 521t525 216t529 -233l-160 -146q-158 172 -375 172q-217 -1 -365 -155t-148 -374t149 -375t363 -155t337 123v279h-336v190h543v-555q-222 -243 -536 -243t-527 215t-213 520z" />
    <glyph glyph-name="H" unicode="H" horiz-adv-x="1290" 
d="M1126 0h-219v705h-524v-705h-219v1434h219v-527h524v527h219v-1434z" />
    <glyph glyph-name="I" unicode="I" horiz-adv-x="794" 
d="M682 0h-569v182h176v1067h-176v185h569v-185h-176v-1067h176v-182z" />
    <glyph glyph-name="J" unicode="J" horiz-adv-x="933" 
d="M369 -18q-260 0 -361 225l166 108q70 -131 191 -131q82 0 131 62t49 162v1026h217v-1020q0 -192 -102 -312t-291 -120z" />
    <glyph glyph-name="K" unicode="K" horiz-adv-x="1193" 
d="M401 0h-217v1434h217v-510q0 -32 -2 -60t-2 -30q10 29 45 73l379 527h244l-379 -527l473 -907h-250l-331 651l-35 80q-2 0 -10 -15t-39 -61l-93 -123v-532z" />
    <glyph glyph-name="L" unicode="L" horiz-adv-x="970" 
d="M920 0h-756v1434h217v-1229h539v-205z" />
    <glyph glyph-name="M" unicode="M" horiz-adv-x="1873" 
d="M1552 1434l199 -1434h-233l-111 967q-14 106 -14 163q-6 -61 -39 -157l-332 -973h-172l-334 971q-19 59 -41 164q0 -70 -10 -168l-111 -967h-231l196 1434h256l334 -975q25 -74 25 -107q2 2 9 43t15 62l338 977h256z" />
    <glyph glyph-name="N" unicode="N" horiz-adv-x="1314" 
d="M920 1434h210v-1434h-210v350l-484 662q-43 53 -51 80v-7q4 -12 4 -38l2 -52v-995h-207v1434h211l484 -678q29 -43 45 -76v6l-4 60v688z" />
    <glyph glyph-name="O" unicode="O" horiz-adv-x="1644" 
d="M822 184q220 0 367 152q146 152 146 381t-145 380q-144 151 -366 151t-368 -152t-146 -381t146 -380t366 -151zM822 -20q-304 0 -520 216t-216 520t216 520t520 216t520 -216t216 -520t-216 -520t-520 -216z" />
    <glyph glyph-name="P" unicode="P" horiz-adv-x="1189" 
d="M631 739q131 0 197 66q66 67 67 181q0 114 -69 180t-195 67h-230v-494h230zM401 0h-217v1434h469q213 0 334 -125t121 -325t-124 -322t-331 -123h-252v-539z" />
    <glyph glyph-name="Q" unicode="Q" horiz-adv-x="1644" 
d="M823 184q162 0 289 86l-160 160l125 125l160 -160q98 141 98 322q0 229 -145 380q-144 151 -366 151t-368 -152t-146 -381t146 -380t367 -151zM823 -20q-305 0 -521 216t-216 520t216 520t520 216t520 -216t217 -519q0 -264 -173 -473l152 -150l-125 -123l-153 152
q-195 -143 -437 -143z" />
    <glyph glyph-name="R" unicode="R" horiz-adv-x="1234" 
d="M631 739q131 0 197 66q66 67 67 181q0 114 -69 180t-195 67h-230v-494h230zM401 0h-217v1434h469q213 0 334 -125t121 -324q0 -135 -58 -239t-165 -156l258 -590h-238q-111 252 -227 539h-277v-539z" />
    <glyph glyph-name="S" unicode="S" horiz-adv-x="995" 
d="M500 -20q-145 0 -266 74q-120 75 -173 216l187 107q35 -94 102 -147q68 -52 159 -52t146 60t55 144q0 82 -56 150q-58 68 -139 127t-162 124t-138 153t-57 186q0 144 101 238t241 94q205 0 307 -164l-158 -129q-63 96 -143 96q-57 -1 -94 -39t-37 -96t57 -115
q57 -59 138 -117t163 -126t139 -163t58 -204q0 -181 -123 -299t-307 -118z" />
    <glyph glyph-name="T" unicode="T" horiz-adv-x="903" 
d="M561 0h-219v1231h-301v203h821v-203h-301v-1231z" />
    <glyph glyph-name="U" unicode="U" horiz-adv-x="1288" 
d="M644 180q108 0 180 79t73 210v965h219v-930q0 -264 -134 -394t-338 -130t-338 131t-134 393v930h219v-965q0 -129 73 -209q72 -80 180 -80z" />
    <glyph glyph-name="V" unicode="V" horiz-adv-x="1198" 
d="M664 498l280 936h234l-463 -1434h-232l-463 1434h232l283 -936q31 -100 65 -254q17 90 64 254z" />
    <glyph glyph-name="W" unicode="W" horiz-adv-x="1878" 
d="M1321 1434l-272 -723l127 -334q20 -53 38 -137q2 35 39 137l389 1057h218l-539 -1434h-205l-147 395q-12 27 -29 113l-6 -21q-14 -63 -27 -92l-145 -395h-205l-537 1434h220l393 -1057q31 -84 39 -137q18 84 39 137l120 334l-272 723h211l129 -353q31 -86 43 -151
q4 51 41 151l129 353h209z" />
    <glyph glyph-name="X" unicode="X" horiz-adv-x="1181" 
d="M584 961l39 90l190 383h238l-338 -652l407 -782h-233l-264 518q-23 41 -39 90l-37 -90l-252 -518h-234l396 782l-336 652h237l189 -383z" />
    <glyph glyph-name="Y" unicode="Y" horiz-adv-x="1175" 
d="M690 0h-217v713l-432 721h250l248 -430q10 -18 19 -38t16 -36q7 -14 8 -17q0 18 43 93l258 428h252l-445 -723v-711z" />
    <glyph glyph-name="Z" unicode="Z" horiz-adv-x="1204" 
d="M1067 0h-946v170l629 993l47 70q-47 -2 -86 -2h-559v203h915v-172l-633 -1002q-24 -42 -43 -61q35 4 72 4h604v-203z" />
    <glyph glyph-name="bracketleft" unicode="[" horiz-adv-x="464" 
d="M451 -8v-197h-359v1843h359v-196h-140v-1450h140z" />
    <glyph glyph-name="backslash" unicode="\" horiz-adv-x="724" 
d="M186 1638l574 -1843h-223l-574 1843h223z" />
    <glyph glyph-name="bracketright" unicode="]" horiz-adv-x="464" 
d="M14 -205v182h142v1477h-142v184h359v-1843h-359z" />
    <glyph glyph-name="asciicircum" unicode="^" horiz-adv-x="954" 
d="M166 930l-127 127l352 352h146l354 -352l-127 -127l-299 299z" />
    <glyph glyph-name="underscore" unicode="_" horiz-adv-x="1056" 
d="M-10 -254v162h1083v-162h-1083z" />
    <glyph glyph-name="grave" unicode="`" horiz-adv-x="382" 
d="M-66 1280l119 127l307 -287l-116 -127z" />
    <glyph glyph-name="a" unicode="a" horiz-adv-x="1120" 
d="M469 154q123 0 203 76t98 180q-268 59 -390 -20q-69 -44 -69 -106t41 -96t117 -34zM1069 0h-59q-166 0 -215 170q-125 -190 -373 -190q-156 0 -243 84t-87 211q0 129 112 219t322 90q92 0 246 -31v49q0 90 -59 146t-160 57q-141 0 -219 -115l-154 117q9 19 50 58
q40 40 80 66t108 46t143 20q193 0 307 -106t113 -283v-354q0 -57 59 -57h29v-197z" />
    <glyph glyph-name="b" unicode="b" horiz-adv-x="1157" 
d="M598 166q116 0 190 90t74 228t-74 226t-190 89q-116 0 -184 -86q-68 -87 -68 -227t68 -230t184 -90zM342 0h-205v1536h211v-653q0 -8 -4 -41q111 145 300 145t309 -141q120 -142 120 -360t-119 -362q-118 -144 -310 -144t-306 163q4 -61 4 -143z" />
    <glyph glyph-name="c" unicode="c" horiz-adv-x="1046" 
d="M309 484q0 -136 79 -222t211 -86t218 123l156 -123q-143 -195 -383 -194q-211 0 -352 146t-142 357q0 211 142 357t352 147q210 0 360 -164q-2 -2 -143 -137q-96 106 -219 106t-201 -86q-78 -88 -78 -224z" />
    <glyph glyph-name="d" unicode="d" horiz-adv-x="1148" 
d="M551 166q115 0 183 90t69 230q0 140 -69 226q-68 86 -184 87q-116 0 -190 -88q-74 -89 -74 -227t76 -228q74 -90 189 -90zM1012 0h-205q0 80 4 141q-117 -161 -307 -161t-309 144t-119 362t120 360t309 141q189 0 300 -141q-4 25 -4 37v653h211v-1536z" />
    <glyph glyph-name="e" unicode="e" horiz-adv-x="1077" 
d="M553 811q-98 0 -170 -61t-92 -175h502q-14 109 -78 173t-162 63zM565 -20q-217 0 -355 143t-138 359t133 362t352 145q219 0 334 -142t115 -362v-53h-721q14 -135 95 -205t193 -69q178 0 275 141l145 -111q-80 -104 -176 -156t-252 -52z" />
    <glyph glyph-name="f" unicode="f" horiz-adv-x="694" 
d="M635 778h-221v-778h-217v778h-150v189h150v235q0 164 95 262t235 98t225 -79l-99 -162q-39 47 -103 47t-100 -45t-36 -129v-227h221v-189z" />
    <glyph glyph-name="g" unicode="g" horiz-adv-x="1110" 
d="M378 -203q-60 0 -106 10q-23 -39 -22 -77q0 -76 81 -128t226 -52t227 54q82 56 82 136q0 45 -37 77q-37 31 -94 31t-177 -26t-180 -25zM324 570q0 -108 68 -175t168 -67q101 0 166 68t65 176t-65 176t-169 68q-105 0 -169 -70q-64 -68 -64 -176zM559 987q117 0 217 -55
l133 147l135 -129l-135 -131q86 -113 86 -250q0 -178 -127 -297t-309 -118q-111 0 -203 41q-61 -59 -61 -125q0 -39 27 -64q28 -24 74 -24t155 22t182 23q156 0 246 -86q90 -87 90 -225t-133 -246t-372 -109q-238 0 -368 96t-130 236q0 109 75 203q-41 55 -41 137
q0 154 127 250q-109 115 -109 289t129 295q128 120 312 120z" />
    <glyph glyph-name="h" unicode="h" horiz-adv-x="1167" 
d="M348 0h-211v1536h211v-635q0 -37 -6 -80q119 168 301 168t285 -113q102 -114 102 -317v-559h-213v551q0 125 -62 193q-63 68 -161 67q-98 0 -169 -77t-77 -185v-549z" />
    <glyph glyph-name="i" unicode="i" horiz-adv-x="505" 
d="M358 0h-217v967h217v-967zM100 1240q0 62 45 108t107 45q62 0 108 -45q46 -46 46 -108t-46 -107t-107 -45t-107 44q-46 46 -46 108z" />
    <glyph glyph-name="j" unicode="j" horiz-adv-x="571" 
d="M314 1382q62 0 108 -45t45 -107q0 -62 -45 -108q-46 -46 -108 -45q-62 -1 -107 45t-45 108t45 107t107 45zM72 -633q-236 0 -320 221l164 111q29 -123 150 -123q61 0 101 48t40 126l-2 1217h219v-1223q0 -164 -98 -270t-254 -107z" />
    <glyph glyph-name="k" unicode="k" horiz-adv-x="1026" 
d="M354 0h-217v1536h217v-936l316 369h237l-313 -361l428 -608h-234l-325 459l-109 -125v-334z" />
    <glyph glyph-name="l" unicode="l" horiz-adv-x="491" 
d="M354 0h-217v1536h217v-1536z" />
    <glyph glyph-name="m" unicode="m" horiz-adv-x="1662" 
d="M348 0h-211v967h211v-58q0 -37 -6 -73q100 154 276 153q201 0 279 -170q102 170 307 170q146 0 234 -94t88 -268v-627h-211v616q0 88 -48 142t-131 53q-84 0 -142 -65t-58 -175v-571h-211v621q0 86 -48 136t-129 50q-81 -1 -139 -61t-61 -164v-582z" />
    <glyph glyph-name="n" unicode="n" horiz-adv-x="1167" 
d="M1030 559v-559h-213v551q0 125 -62 193q-63 68 -163 67q-100 0 -171 -71t-73 -181v-559h-211v967h211v-66q0 -37 -6 -80q119 168 301 168t285 -113q102 -114 102 -317z" />
    <glyph glyph-name="o" unicode="o" horiz-adv-x="1146" 
d="M860 484q0 138 -80 228t-208 89q-128 0 -208 -89q-80 -90 -79 -228q-1 -138 81 -227t209 -89t206 89t79 227zM573 -20q-209 0 -353 146t-144 358t144 358t352 147q208 0 354 -146q146 -147 145 -359t-145 -358t-353 -146z" />
    <glyph glyph-name="p" unicode="p" horiz-adv-x="1155" 
d="M598 166q116 0 190 90t74 228t-74 226t-190 89q-116 0 -184 -86q-68 -87 -68 -227t68 -230t184 -90zM647 -20q-188 0 -309 157q4 -70 4 -131v-518h-205v1479h211v-84q0 -5 -1 -17t-1 -18q113 139 300 139t307 -141q120 -142 120 -360t-119 -362t-307 -144z" />
    <glyph glyph-name="q" unicode="q" horiz-adv-x="1155" 
d="M565 799q-117 0 -189 -88q-72 -89 -73 -227t73 -228t189 -90t185 90t70 230t-69 227q-69 86 -186 86zM518 -20q-188 0 -307 144t-119 362t119 360t307 141q188 0 301 -149q-2 16 -2 45v84h211v-1479h-207v504q0 104 4 149q-119 -161 -307 -161z" />
    <glyph glyph-name="r" unicode="r" horiz-adv-x="675" 
d="M608 989v-203q-116 -4 -188 -80t-72 -198v-508h-211v967h211v-66q0 -20 -4 -70q94 158 264 158z" />
    <glyph glyph-name="s" unicode="s" horiz-adv-x="899" 
d="M452 160q66 0 107 32t41 74q0 43 -48 78t-118 63q-70 27 -138 61t-117 96q-48 62 -48 149q0 127 93 201t214 73q195 0 299 -141q-47 -37 -137 -115q-57 82 -160 82q-46 0 -76 -25q-30 -24 -30 -66t49 -75t119 -61t140 -65q70 -36 118 -99q49 -63 49 -148q0 -127 -95 -211
t-255 -83q-262 0 -393 186l141 123q43 -61 111 -95t134 -34z" />
    <glyph glyph-name="t" unicode="t" horiz-adv-x="649" 
d="M66 967h151v376h215v-376h152v-195h-152v-772h-215v772h-151v195z" />
    <glyph glyph-name="u" unicode="u" horiz-adv-x="1163" 
d="M1026 967v-967h-211v63q0 23 4 80q-117 -166 -299 -166t-284 113t-103 318v559h213v-551q0 -125 62 -193q62 -67 160 -67q97 0 172 74t75 188v549h211z" />
    <glyph glyph-name="v" unicode="v" horiz-adv-x="1040" 
d="M631 0h-234l-374 967h231l192 -504q21 -53 68 -195q10 23 72 195l198 504h234z" />
    <glyph glyph-name="w" unicode="w" horiz-adv-x="1640" 
d="M1145 231q0 29 20 86l219 650h234l-356 -967h-232l-196 575q-16 39 -17 72q0 -2 -3 -15q-3 -14 -6 -30t-7 -27l-205 -575h-231q-229 643 -342 967h231l207 -650l18 -88q10 57 21 88l219 650h201l206 -650q19 -66 19 -86z" />
    <glyph glyph-name="x" unicode="x" horiz-adv-x="1056" 
d="M35 0l358 494l-340 473h246l152 -211l77 -115q25 45 76 115l154 211h246l-345 -473l361 -494h-244l-166 229q-59 80 -82 115l-38 -55q-19 -29 -41 -60l-168 -229h-246z" />
    <glyph glyph-name="y" unicode="y" horiz-adv-x="1058" 
d="M121 -582l287 648l-375 901h227l186 -453l76 -199q35 84 84 199l197 453h229l-686 -1549h-225z" />
    <glyph glyph-name="z" unicode="z" horiz-adv-x="1040" 
d="M944 190v-190h-864v156l588 624q-84 -4 -168 -4h-389v191h833v-158l-594 -625l182 6h412z" />
    <glyph glyph-name="braceleft" unicode="{" horiz-adv-x="542" 
d="M41 623v200q135 0 135 133v437q0 113 73 185t193 71h39v-201h-16q-74 0 -74 -74v-422q0 -154 -133 -229q133 -80 133 -229v-424q0 -74 74 -74h16v-199h-39q-122 0 -194 71t-72 183v438q0 134 -135 134z" />
    <glyph glyph-name="bar" unicode="|" horiz-adv-x="544" 
d="M164 -115v1651h217v-1651h-217z" />
    <glyph glyph-name="braceright" unicode="}" horiz-adv-x="542" 
d="M494 823v-200q-135 0 -136 -134v-438q0 -113 -72 -183t-194 -71h-39v199h17q74 0 73 74v424q0 152 131 229q-131 76 -131 229v422q0 74 -73 74h-17v201h39q121 0 194 -72t72 -184v-437q1 -133 136 -133z" />
    <glyph glyph-name="asciitilde" unicode="~" horiz-adv-x="1015" 
d="M301 911q65 0 175 -43t152 -43t83 23t63 61l144 -96q-106 -162 -283 -162q-70 0 -173 43q-103 44 -168 44t-128 -68l-129 98q96 143 264 143z" />
    <glyph glyph-name="uni00A0" unicode="&#xa0;" horiz-adv-x="614" 
 />
    <glyph glyph-name="exclamdown" unicode="&#xa1;" horiz-adv-x="495" 
d="M96 1299q0 61 45 107t107 46t108 -45q45 -45 45 -107t-45 -108q-45 -45 -107 -45t-108 45q-45 45 -45 107zM147 977h199l10 -977h-219z" />
    <glyph glyph-name="cent" unicode="&#xa2;" horiz-adv-x="950" 
d="M530 1042q-124 0 -200 -87q-78 -87 -78 -223t79 -222t211 -86t218 123l155 -123q-121 -162 -301 -188v-236h-182v240q-174 35 -284 172t-109 321q0 184 109 322q110 137 284 172v207h182v-205q160 -27 279 -156q-2 -2 -143 -137q-96 106 -220 106z" />
    <glyph glyph-name="sterling" unicode="&#xa3;" horiz-adv-x="1036" 
d="M971 195v-195h-908v195h91q53 131 53 258q0 53 -6 108h-148v184h131q-14 143 -14 283q0 198 118 312t286 114t283 -104q116 -104 116 -303l-10 -142l-215 21q10 55 10 96q0 92 -45 150t-135 58t-142 -60q-51 -60 -51 -166t14 -259h285v-184h-274l2 -49q0 -186 -54 -317
h613z" />
    <glyph glyph-name="currency" unicode="&#xa4;" horiz-adv-x="1040" 
d="M522 877q-92 0 -143 -66t-51 -155q0 -90 51 -154t142 -64t143 65q51 65 51 153t-50 155q-51 66 -143 66zM525 264q-118 0 -212 53l-135 -137l-129 129l141 140q-53 93 -53 205t47 202l-137 139l129 129l131 -133q92 59 212 59t214 -57l131 131l129 -129l-137 -137
q51 -96 51 -207t-55 -205l139 -137l-129 -129l-135 137q-84 -53 -202 -53z" />
    <glyph glyph-name="yen" unicode="&#xa5;" horiz-adv-x="1062" 
d="M180 625v161h228l-418 648h250l221 -355q47 -78 69 -123q0 23 68 123l233 355h252l-428 -648h211v-161h-227v-125h227v-162h-227v-338h-217v338h-242v162h242v125h-242z" />
    <glyph glyph-name="brokenbar" unicode="&#xa6;" horiz-adv-x="389" 
d="M281 799h-183v727h183v-727zM281 -117h-183v793h183v-793z" />
    <glyph glyph-name="section" unicode="&#xa7;" horiz-adv-x="976" 
d="M283 817q0 -51 56 -91t173 -84t170 -73q16 27 16 60q0 65 -53 109t-167 92t-159 75q-36 -37 -36 -88zM489 -18q-139 0 -253 74t-164 220l194 95q33 -91 95 -141q63 -50 135 -50t112 33t39 88q0 55 -57 95t-140 69t-166 65t-141 103q-57 67 -57 175t117 204
q-39 57 -39 137q0 131 98 218t240 87q205 0 307 -164l-160 -121q-53 82 -141 82q-53 -1 -86 -27t-33 -70t53 -82t130 -70t154 -70t130 -106q53 -67 53 -154q0 -133 -94 -215q45 -70 45 -152q0 -139 -94 -231t-277 -92z" />
    <glyph glyph-name="dieresis" unicode="&#xa8;" horiz-adv-x="761" 
d="M453 1255q0 51 34 86q35 35 85 35t86 -35t36 -86t-36 -86t-86 -35t-85 35q-34 35 -34 86zM72 1255q0 51 34 86q36 35 86 35t86 -35t36 -86t-36 -86t-86 -35t-86 35q-34 35 -34 86z" />
    <glyph glyph-name="copyright" unicode="&#xa9;" horiz-adv-x="1622" 
d="M215 714q0 -255 171 -428t424 -173t425 174t172 429t-171 428t-425 173t-425 -174t-171 -429zM825 967q-98 0 -165 -71q-66 -71 -66 -178t70 -179t172 -72t176 98l131 -108q-121 -166 -322 -166q-170 0 -292 125t-121 301q0 176 121 300q122 124 296 124t297 -137
l-125 -121q-74 84 -172 84zM72 715q0 305 216 522t522 217t523 -217t217 -522t-217 -521t-523 -216t-522 216t-216 521z" />
    <glyph glyph-name="ordfeminine" unicode="&#xaa;" horiz-adv-x="874" 
d="M371 801q92 0 146 60t58 145q-85 20 -155 20t-116 -39t-46 -84t31 -73t82 -29zM823 678h-39q-72 0 -124 36t-68 99q-90 -154 -270 -154q-121 0 -189 67q-67 67 -67 166t85 176t240 77q104 0 184 -39v35q1 71 -37 111t-112 40q-109 0 -170 -86l-129 99q119 147 303 147
q144 0 234 -80t90 -227v-275q0 -51 53 -51h16v-141z" />
    <glyph glyph-name="guillemotleft" unicode="&#xab;" horiz-adv-x="1058" 
d="M1001 477l-127 -129l-425 426l425 426l40 -40l48 -48l39 -39l-299 -299zM592 1073q-297 -295 -299 -299l299 -297l-127 -129l-426 426l426 426z" />
    <glyph glyph-name="logicalnot" unicode="&#xac;" horiz-adv-x="903" 
d="M82 676v194h743v-401h-184v207h-559z" />
    <glyph glyph-name="registered" unicode="&#xae;" horiz-adv-x="1087" 
d="M549 975q74 0 74 64t-74 65h-60v-129h60zM489 733h-92v455h168q66 0 107 -40t41 -108q0 -98 -74 -135l88 -172h-102l-76 156h-60v-156zM548 1346q-166 0 -274 -112q-110 -112 -110 -279t110 -277t275 -111q165 0 275 113q110 114 110 278t-110 276t-276 112zM51 956
q-1 206 145 352t352 146t352 -145t146 -353t-144 -352q-146 -145 -353 -145t-353 145t-145 352z" />
    <glyph glyph-name="degree" unicode="&#xb0;" horiz-adv-x="503" 
d="M166 1231q0 -33 24 -55t55 -23q33 0 55 23q22 24 22 56t-23 54t-55 23q-32 -1 -54 -23q-24 -22 -24 -55zM23 1231q0 92 64 158q65 65 158 65t159 -66t65 -157q0 -92 -66 -158q-67 -65 -159 -65t-157 65q-64 66 -64 158z" />
    <glyph glyph-name="plusminus" unicode="&#xb1;" horiz-adv-x="907" 
d="M66 264v162h751v-162h-751zM82 786v172h285v287h172v-287h286v-172h-286v-284h-172v284h-285z" />
    <glyph glyph-name="twosuperior" unicode="&#xb2;" horiz-adv-x="677" 
d="M416 1212q0 86 -88 84q-44 0 -64 -40t-6 -91l-164 -47q-16 45 -16 90q0 108 75 176t182 68t182 -63t75 -173t-67 -204t-183 -152h256v-164h-535v142q113 46 233 154t120 220z" />
    <glyph glyph-name="threesuperior" unicode="&#xb3;" horiz-adv-x="681" 
d="M336 676q-123 0 -198 58t-89 120q35 12 170 66q25 -78 109 -78q46 0 72 24t26 63q0 37 -27 65t-73 28h-35v119q41 -1 67 25t27 65q0 57 -51 57t-55 -67h-183q0 113 72 173t173 60t161 -59t61 -157q0 -98 -88 -148q63 -16 100 -64t37 -113q0 -104 -76 -171
q-77 -66 -200 -66z" />
    <glyph glyph-name="acute" unicode="&#xb4;" horiz-adv-x="579" 
d="M371 1407l118 -127l-309 -287l-117 127z" />
    <glyph glyph-name="mu" unicode="&#xb5;" horiz-adv-x="1142" 
d="M508 -23q-96 0 -178 39v-591h-197v1542h213v-551q0 -125 62 -193q62 -67 158 -67q95 0 170 70t79 180v561h211v-967h-211v63q0 23 4 80q-116 -166 -311 -166z" />
    <glyph glyph-name="mu" unicode="&#x3bc;" horiz-adv-x="1142" 
d="M508 -23q-96 0 -178 39v-591h-197v1542h213v-551q0 -125 62 -193q62 -67 158 -67q95 0 170 70t79 180v561h211v-967h-211v63q0 23 4 80q-116 -166 -311 -166z" />
    <glyph glyph-name="paragraph" unicode="&#xb6;" horiz-adv-x="1288" 
d="M834 0h-218v610h-106q-180 0 -295 115t-115 293t116 297t294 119h324v-1434zM1161 0h-215v1434h215v-1434z" />
    <glyph glyph-name="periodcentered" unicode="&#xb7;" horiz-adv-x="481" 
d="M88 742q0 62 45 108t107 45q62 0 108 -45q45 -46 45 -108t-45 -107t-107 -45t-108 45q-45 45 -45 107z" />
    <glyph glyph-name="cedilla" unicode="&#xb8;" horiz-adv-x="868" 
d="M510 -284q0 28 -18 50t-54 22t-57 -42l-102 45v272h127v-184q35 25 75 25q88 0 136 -56q49 -56 49 -139q0 -82 -56 -143t-168 -61t-186 104l115 78l6 -6q22 -33 59 -33t56 20q18 20 18 48z" />
    <glyph glyph-name="onesuperior" unicode="&#xb9;" horiz-adv-x="593" 
d="M516 696h-455v162h136v367l-88 -43l-74 145l215 107h129v-576h137v-162z" />
    <glyph glyph-name="ordmasculine" unicode="&#xba;" horiz-adv-x="970" 
d="M463 1280q-91 0 -143 -66t-52 -154t51 -154q51 -64 143 -64t142 64q51 64 51 154q0 88 -50 154t-142 66zM463 668q-182 0 -284 116q-101 117 -101 277q0 161 101 277t283 116t283 -117q103 -117 103 -277t-102 -276t-283 -116z" />
    <glyph glyph-name="guillemotright" unicode="&#xbb;" horiz-adv-x="1058" 
d="M598 348l-129 129l240 238q45 45 61 59l-301 299l129 127l426 -426zM188 348l-129 129l240 238q45 45 61 59l-301 299l129 127l426 -426z" />
    <glyph glyph-name="onequarter" unicode="&#xbc;" horiz-adv-x="1452" 
d="M236 0l765 1434h216l-766 -1434h-215zM1100 309v160l-113 -160h113zM1395 156h-117v-156h-182v156h-312v106l357 483h137v-428h117v-161zM516 696h-455v162h136v367l-88 -43l-74 145l215 107h129v-576h137v-162z" />
    <glyph glyph-name="onehalf" unicode="&#xbd;" horiz-adv-x="983" 
d="M1153 516q0 84 -87 84q-44 0 -64 -40t-7 -91l-164 -47q-16 45 -16 90q0 108 75 176t182 68t182 -64t75 -172q0 -110 -66 -205q-67 -94 -184 -151h256v-164h-534v141q113 45 233 154t119 221zM516 696h-455v162h136v367l-88 -43l-74 145l215 107h129v-576h137v-162zM217 0
l766 1434h215l-766 -1434h-215z" />
    <glyph glyph-name="threequarters" unicode="&#xbe;" horiz-adv-x="1019" 
d="M600 913q0 -105 -76 -171t-200 -66q-123 0 -198 58t-89 120q35 12 170 66q25 -78 108 -78q45 0 72 24t27 63q0 37 -27 65t-74 28h-34v119q41 -1 67 25t27 65q0 57 -51 57t-56 -67h-182q0 113 72 173t173 60t161 -59t60 -157t-87 -148q63 -16 100 -64t37 -113zM242 0
l766 1434h215l-766 -1434h-215zM1038 309v160l-112 -160h112zM1333 156h-116v-156h-183v156h-311v106l356 483h138v-428h116v-161z" />
    <glyph glyph-name="questiondown" unicode="&#xbf;" horiz-adv-x="970" 
d="M289 382q0 -93 57 -144q57 -52 148 -52q92 0 154 58t63 155q0 57 -21 119l205 60q29 -53 29 -177q0 -195 -130 -309t-312 -112q-182 0 -297 106t-115 278t151 328q66 68 95 102q30 34 60 102q29 68 25 138h224q8 -142 -68 -255q-41 -60 -65 -89t-82 -90
q-121 -125 -121 -218zM350 1301q0 61 45 107t107 46t108 -46q45 -46 45 -107q0 -62 -45 -107t-107 -45t-108 45q-45 45 -45 107z" />
    <glyph glyph-name="Agrave" unicode="&#xc0;" horiz-adv-x="1187" 
d="M289 1780l119 127l307 -287l-117 -127zM555 1024l-129 -430h336l-129 434q-29 86 -39 158q-8 -58 -39 -162zM940 0l-119 397h-454l-119 -397h-234l463 1434h232l462 -1434h-231z" />
    <glyph glyph-name="Aacute" unicode="&#xc1;" horiz-adv-x="1187" 
d="M780 1907l119 -127l-309 -287l-117 127zM555 1024l-129 -430h336l-129 434q-29 86 -39 158q-8 -58 -39 -162zM940 0l-119 397h-454l-119 -397h-234l463 1434h232l462 -1434h-231z" />
    <glyph glyph-name="Acircumflex" unicode="&#xc2;" horiz-adv-x="1187" 
d="M555 1024l-129 -430h336l-129 434q-29 86 -39 158q-8 -58 -39 -162zM449 1573l-130 129l201 203h146l202 -203l-127 -129l-147 170l-49 -55q-18 -23 -55 -66t-41 -49zM940 0l-119 397h-454l-119 -397h-234l463 1434h232l462 -1434h-231z" />
    <glyph glyph-name="Atilde" unicode="&#xc3;" horiz-adv-x="1187" 
d="M555 1024l-129 -430h336l-129 434q-29 86 -39 158q-8 -58 -39 -162zM750 1552q-56 0 -150 40t-134 40q-59 0 -112 -53l-104 115q86 106 211 106q51 0 143 -41t140 -41t112 64l113 -107q-82 -123 -219 -123zM940 0l-119 397h-454l-119 -397h-234l463 1434h232l462 -1434
h-231z" />
    <glyph glyph-name="Adieresis" unicode="&#xc4;" horiz-adv-x="1187" 
d="M668 1714q0 51 34 86q35 35 85 35t86 -35t36 -86t-36 -86t-86 -35t-85 35q-34 35 -34 86zM287 1714q0 51 35 86t85 35t86 -35q35 -35 35 -86t-36 -86t-85 -35q-50 0 -85 35t-35 86zM555 1024l-129 -430h336l-129 434q-29 86 -39 158q-8 -58 -39 -162zM940 0l-119 397
h-454l-119 -397h-234l463 1434h232l462 -1434h-231z" />
    <glyph glyph-name="Aring" unicode="&#xc5;" horiz-adv-x="1198" 
d="M510 1630q0 -36 27 -64t63 -28t64 28q26 28 26 64t-26 63q-27 25 -64 25q-38 0 -64 -26t-26 -62zM561 1024l-129 -430h336l-129 434q-29 86 -39 158q-8 -58 -39 -162zM375 1630q0 94 65 160q66 66 160 66t161 -66t66 -160q0 -131 -112 -196l463 -1434h-232l-119 397h-454
l-119 -397h-234l463 1434h2q-110 65 -110 196z" />
    <glyph glyph-name="AE" unicode="&#xc6;" horiz-adv-x="1632" 
d="M717 575v570q-71 -193 -137 -330l-115 -240h252zM1536 1434v-197h-602v-399h422v-191h-422v-452h602v-195h-819v399h-336l-188 -399h-234l698 1434h879z" />
    <glyph glyph-name="Ccedilla" unicode="&#xc7;" horiz-adv-x="1384" 
d="M777 -352q38 0 57 20q18 20 18 48t-18 50t-54 22t-57 -42l-102 45v207q-250 55 -410 256t-160 463q0 303 214 519t525 216t529 -233l-160 -146q-168 172 -380 172q-212 -1 -360 -155q-149 -154 -149 -374t148 -375t362 -155q213 0 385 179l162 -142q-221 -244 -543 -243
q-25 0 -36 2v-103q35 25 75 25q88 0 136 -56q49 -56 49 -139q0 -82 -56 -143t-168 -61t-186 104l115 78q26 -39 64 -39z" />
    <glyph glyph-name="Egrave" unicode="&#xc8;" horiz-adv-x="1105" 
d="M373 1780l119 127l307 -287l-117 -127zM983 0h-819v1434h819v-199h-602v-385h453v-197h-453v-456h602v-197z" />
    <glyph glyph-name="Eacute" unicode="&#xc9;" horiz-adv-x="1105" 
d="M651 1907l119 -127l-309 -287l-117 127zM983 0h-819v1434h819v-199h-602v-385h453v-197h-453v-456h602v-197z" />
    <glyph glyph-name="Ecircumflex" unicode="&#xca;" horiz-adv-x="1105" 
d="M430 1561l-129 129l201 202h145l203 -202l-127 -129l-148 170l-49 -56q-18 -23 -55 -65t-41 -49zM983 0h-819v1434h819v-199h-602v-385h453v-197h-453v-456h602v-197z" />
    <glyph glyph-name="Edieresis" unicode="&#xcb;" horiz-adv-x="1105" 
d="M645 1755q0 51 35 86t85 35t86 -35t36 -86t-36 -86t-86 -35t-85 35t-35 86zM264 1755q0 51 35 86t85 35t86 -35t36 -86t-36 -86t-86 -35t-85 35t-35 86zM983 0h-819v1434h819v-199h-602v-385h453v-197h-453v-456h602v-197z" />
    <glyph glyph-name="Igrave" unicode="&#xcc;" horiz-adv-x="802" 
d="M72 1780l118 127l308 -287l-117 -127zM694 0h-569v182h176v1067h-176v185h569v-185h-176v-1067h176v-182z" />
    <glyph glyph-name="Iacute" unicode="&#xcd;" horiz-adv-x="784" 
d="M580 1907l118 -127l-309 -287l-117 127zM678 0h-569v182h176v1067h-176v185h569v-185h-176v-1067h176v-182z" />
    <glyph glyph-name="Icircumflex" unicode="&#xce;" horiz-adv-x="784" 
d="M236 1561l-130 129l201 202h146l202 -202l-127 -129l-147 170l-49 -56q-18 -23 -55 -65t-41 -49zM678 0h-569v182h176v1067h-176v185h569v-185h-176v-1067h176v-182z" />
    <glyph glyph-name="Idieresis" unicode="&#xcf;" horiz-adv-x="798" 
d="M465 1755q0 51 35 86t85 35t86 -35t36 -86t-36 -86t-86 -35t-85 35t-35 86zM84 1755q0 51 35 86t85 35t86 -35t36 -86t-36 -86t-86 -35t-85 35t-35 86zM690 0h-569v182h176v1067h-176v185h569v-185h-176v-1067h176v-182z" />
    <glyph glyph-name="Eth" unicode="&#xd0;" horiz-adv-x="1398" 
d="M629 195q215 0 340 144t125 405t-131 377t-390 116h-180v-418h283v-196h-283v-428h236zM633 0h-459v623h-133v196h133v615h399q739 0 740 -699q1 -347 -187 -541t-493 -194z" />
    <glyph glyph-name="Ntilde" unicode="&#xd1;" horiz-adv-x="1273" 
d="M784 1552q-57 0 -150 40t-132 40q-60 0 -113 -53l-104 115q86 106 211 106q49 0 143 -41t141 -41t111 64l113 -107q-82 -123 -220 -123zM899 1434h211v-1434h-211v350l-483 662q-43 53 -51 80v-7q4 -12 4 -38l2 -52v-995h-207v1434h211l483 -678q29 -43 45 -76v6l-4 60
v688z" />
    <glyph glyph-name="Ograve" unicode="&#xd2;" horiz-adv-x="1615" 
d="M604 1780l119 127l307 -287l-117 -127zM295 715q1 -229 147 -380t366 -151t367 152q146 152 146 381t-145 380q-144 151 -366 151t-369 -152q-146 -152 -146 -381zM808 -20q-304 0 -520 216t-216 520t216 520t520 216t520 -216t216 -520t-216 -520t-520 -216z" />
    <glyph glyph-name="Oacute" unicode="&#xd3;" horiz-adv-x="1615" 
d="M883 1907l118 -127l-309 -287l-117 127zM295 715q1 -229 147 -380t366 -151t367 152q146 152 146 381t-145 380q-144 151 -366 151t-369 -152q-146 -152 -146 -381zM808 -20q-304 0 -520 216t-216 520t216 520t520 216t520 -216t216 -520t-216 -520t-520 -216z" />
    <glyph glyph-name="Ocircumflex" unicode="&#xd4;" horiz-adv-x="1615" 
d="M662 1561l-130 129l201 202h146l202 -202l-127 -129l-147 170l-49 -56q-18 -23 -55 -65t-41 -49zM295 715q1 -229 147 -380t366 -151t367 152q146 152 146 381t-145 380q-144 151 -366 151t-369 -152q-146 -152 -146 -381zM808 -20q-304 0 -520 216t-216 520t216 520
t520 216t520 -216t216 -520t-216 -520t-520 -216z" />
    <glyph glyph-name="Otilde" unicode="&#xd5;" horiz-adv-x="1615" 
d="M965 1552q-57 0 -151 40t-132 40q-40 0 -63 -15t-50 -38l-104 115q86 106 211 106q49 0 143 -41t141 -41t111 64l113 -107q-82 -123 -219 -123zM295 715q1 -229 147 -380t366 -151t367 152q146 152 146 381t-145 380q-144 151 -366 151t-369 -152q-146 -152 -146 -381z
M808 -20q-304 0 -520 216t-216 520t216 520t520 216t520 -216t216 -520t-216 -520t-520 -216z" />
    <glyph glyph-name="Odieresis" unicode="&#xd6;" horiz-adv-x="1615" 
d="M877 1755q0 51 34 86q35 35 85 35t86 -35t36 -86t-36 -86t-86 -35t-85 35q-34 35 -34 86zM496 1755q0 51 34 86q35 35 85 35t86 -35t36 -86t-36 -86t-86 -35t-85 35q-34 35 -34 86zM295 715q1 -229 147 -380t366 -151t367 152q146 152 146 381t-145 380
q-144 151 -366 151t-369 -152q-146 -152 -146 -381zM808 -20q-304 0 -520 216t-216 520t216 520t520 216t520 -216t216 -520t-216 -520t-520 -216z" />
    <glyph glyph-name="multiply" unicode="&#xd7;" horiz-adv-x="847" 
d="M166 401l-115 113l248 248l-250 248l117 116l248 -249l245 249l117 -116l-250 -248l248 -248l-115 -113l-245 248z" />
    <glyph glyph-name="Oslash" unicode="&#xd8;" horiz-adv-x="1615" 
d="M295 717q0 -270 188 -422l496 926q-86 27 -170 26q-221 0 -368 -151q-146 -152 -146 -379zM809 184q219 0 366 152q146 152 146 381q0 272 -195 424l-497 -928q86 -29 180 -29zM808 -20q-304 0 -520 216t-216 520t216 520t520 216t520 -216t216 -520t-216 -520t-520 -216
z" />
    <glyph glyph-name="Ugrave" unicode="&#xd9;" horiz-adv-x="1265" 
d="M436 1780l119 127l307 -287l-117 -127zM636 180q108 0 180 79t73 210v965h219v-930q0 -264 -134 -394t-338 -130t-338 131t-134 393v930h219v-965q0 -129 73 -209q72 -80 180 -80z" />
    <glyph glyph-name="Uacute" unicode="&#xda;" horiz-adv-x="1265" 
d="M715 1907l119 -127l-310 -287l-116 127zM636 180q108 0 180 79t73 210v965h219v-930q0 -264 -134 -394t-338 -130t-338 131t-134 393v930h219v-965q0 -129 73 -209q72 -80 180 -80z" />
    <glyph glyph-name="Ucircumflex" unicode="&#xdb;" horiz-adv-x="1265" 
d="M494 1561l-129 129l200 202h146l202 -202l-127 -129l-147 170l-49 -56q-18 -23 -55 -65t-41 -49zM636 180q108 0 180 79t73 210v965h219v-930q0 -264 -134 -394t-338 -130t-338 131t-134 393v930h219v-965q0 -129 73 -209q72 -80 180 -80z" />
    <glyph glyph-name="Udieresis" unicode="&#xdc;" horiz-adv-x="1265" 
d="M707 1755q0 51 34 86q35 35 85 35t86 -35t36 -86t-36 -86t-86 -35t-85 35q-34 35 -34 86zM326 1755q0 51 34 86q35 35 85 35t86 -35t36 -86t-36 -86t-86 -35t-85 35q-34 35 -34 86zM636 180q108 0 180 79t73 210v965h219v-930q0 -264 -134 -394t-338 -130t-338 131
t-134 393v930h219v-965q0 -129 73 -209q72 -80 180 -80z" />
    <glyph glyph-name="Yacute" unicode="&#xdd;" horiz-adv-x="1124" 
d="M631 1907l119 -127l-310 -287l-116 127zM666 0h-217v713l-433 721h250l248 -430q10 -18 20 -38t16 -36q7 -14 7 -17q0 18 43 93l258 428h252l-444 -723v-711z" />
    <glyph glyph-name="Thorn" unicode="&#xde;" horiz-adv-x="1150" 
d="M610 1001h-229v-421h258q96 0 158 59q61 59 61 157t-67 151q-68 54 -181 54zM381 0h-217v1434h217v-232h233q203 0 329 -106t126 -296t-115 -305q-115 -116 -292 -116h-281v-379z" />
    <glyph glyph-name="germandbls" unicode="&#xdf;" horiz-adv-x="1036" 
d="M332 0h-215v1100q0 162 98 258t247 96q148 0 238 -88t90 -241t-94 -273q-20 -27 -20 -45q0 -31 53 -55h-2q175 -93 214 -209q19 -57 20 -133q-1 -186 -141 -304t-378 -116v198q137 0 216 60t79 165q0 106 -101 168q-42 25 -83 51q-102 63 -101 144q1 80 65 178
q65 98 65 171t-34 110t-88 37t-91 -45t-37 -133v-1094z" />
    <glyph glyph-name="agrave" unicode="&#xe0;" horiz-adv-x="1130" 
d="M348 1321l119 127l307 -287l-117 -127zM469 154q123 0 203 76t98 180q-268 59 -390 -20q-69 -44 -69 -106t41 -96t117 -34zM1069 0h-59q-166 0 -215 170q-125 -190 -373 -190q-156 0 -243 84t-87 211q0 129 112 219t322 90q92 0 246 -31v49q0 90 -59 146t-160 57
q-141 0 -219 -115l-154 117q9 19 50 58q40 40 80 66t108 46t143 20q193 0 307 -106t113 -283v-354q0 -57 59 -57h29v-197z" />
    <glyph glyph-name="aacute" unicode="&#xe1;" horiz-adv-x="1130" 
d="M637 1448l119 -127l-310 -287l-116 127zM469 154q123 0 203 76t98 180q-268 59 -390 -20q-69 -44 -69 -106t41 -96t117 -34zM1069 0h-59q-166 0 -215 170q-125 -190 -373 -190q-156 0 -243 84t-87 211q0 129 112 219t322 90q92 0 246 -31v49q0 90 -59 146t-160 57
q-141 0 -219 -115l-154 117q9 19 50 58q40 40 80 66t108 46t143 20q193 0 307 -106t113 -283v-354q0 -57 59 -57h29v-197z" />
    <glyph glyph-name="acircumflex" unicode="&#xe2;" horiz-adv-x="1130" 
d="M469 154q123 0 203 76t98 180q-268 59 -390 -20q-69 -44 -69 -106t41 -96t117 -34zM422 1061l-129 129l201 203h145l203 -203l-127 -129l-148 170l-49 -55q-18 -23 -55 -66t-41 -49zM1069 0h-59q-166 0 -215 170q-125 -190 -373 -190q-156 0 -243 84t-87 211
q0 129 112 219t322 90q92 0 246 -31v49q0 90 -59 146t-160 57q-141 0 -219 -115l-154 117q9 19 50 58q40 40 80 66t108 46t143 20q193 0 307 -106t113 -283v-354q0 -57 59 -57h29v-197z" />
    <glyph glyph-name="atilde" unicode="&#xe3;" horiz-adv-x="1130" 
d="M469 154q123 0 203 76t98 180q-268 59 -390 -20q-69 -44 -69 -106t41 -96t117 -34zM719 1073q-57 0 -151 40t-142 40q-49 0 -102 -53l-105 114q86 106 211 107q49 0 143 -41q93 -41 141 -41t111 64q30 -24 113 -107q-82 -123 -219 -123zM1069 0h-59q-166 0 -215 170
q-125 -190 -373 -190q-156 0 -243 84t-87 211q0 129 112 219t322 90q92 0 246 -31v49q0 90 -59 146t-160 57q-141 0 -219 -115l-154 117q9 19 50 58q40 40 80 66t108 46t143 20q193 0 307 -106t113 -283v-354q0 -57 59 -57h29v-197z" />
    <glyph glyph-name="adieresis" unicode="&#xe4;" horiz-adv-x="1130" 
d="M639 1255q0 51 35 86t85 35t86 -35t36 -86t-36 -86t-86 -35t-85 36q-35 34 -35 85zM258 1255q0 51 35 86t85 35t86 -35t36 -86t-36 -86t-86 -35t-85 36q-35 34 -35 85zM469 154q123 0 203 76t98 180q-268 59 -390 -20q-69 -44 -69 -106t41 -96t117 -34zM1069 0h-59
q-166 0 -215 170q-125 -190 -373 -190q-156 0 -243 84t-87 211q0 129 112 219t322 90q92 0 246 -31v49q0 90 -59 146t-160 57q-141 0 -219 -115l-154 117q9 19 50 58q40 40 80 66t108 46t143 20q193 0 307 -106t113 -283v-354q0 -57 59 -57h29v-197z" />
    <glyph glyph-name="aring" unicode="&#xe5;" horiz-adv-x="1120" 
d="M475 1282q0 -36 27 -64q28 -28 64 -28t63 28t27 64t-27 63q-27 25 -64 25t-63 -26t-27 -62zM469 154q123 0 203 76t98 180q-268 59 -390 -20q-69 -44 -69 -106t41 -96t117 -34zM340 1282q0 94 66 160t160 66t160 -66q67 -66 67 -160t-67 -161t-161 -67q-93 0 -159 68
q-66 66 -66 160zM1069 0h-59q-166 0 -215 170q-125 -190 -373 -190q-156 0 -243 84t-87 211q0 129 112 219t322 90q92 0 246 -31v49q0 90 -59 146t-160 57q-141 0 -219 -115l-154 117q9 19 50 58q40 40 80 66t108 46t143 20q193 0 307 -106t113 -283v-354q0 -57 59 -57h29
v-197z" />
    <glyph glyph-name="ae" unicode="&#xe6;" horiz-adv-x="1816" 
d="M1246 811q-101 0 -172 -63t-89 -173h502q-6 109 -73 173t-168 63zM473 145q141 0 216 87t83 192q-156 25 -201 25q-121 1 -191 -47t-71 -114q0 -66 42 -104q42 -39 122 -39zM1268 -20q-141 0 -243 67q-101 68 -153 189q-52 -117 -162 -187q-110 -69 -272 -69t-254 80
t-92 211q0 133 113 223t325 90q131 0 242 -33v51q0 92 -59 148t-160 55q-141 0 -219 -115l-154 117q9 19 50 58q40 40 80 66t108 46t143 20q260 0 338 -211q115 203 367 203q210 0 322 -142t112 -362v-53h-721q8 -131 87 -204t200 -72q180 0 276 143l144 -111
q-158 -208 -418 -208z" />
    <glyph glyph-name="ccedilla" unicode="&#xe7;" horiz-adv-x="1046" 
d="M572 -352q38 0 57 20q18 20 18 48t-18 50t-54 22t-57 -42l-102 45v221q-144 54 -232 182t-88 291q0 211 142 357t352 147q211 0 360 -164q-2 -2 -143 -137q-96 106 -219 106t-201 -86q-78 -88 -78 -224t79 -222t211 -86t218 123l156 -123q-143 -195 -383 -194l-47 2v-105
q35 25 75 25q88 0 136 -56t49 -139q-1 -82 -57 -143t-168 -61t-185 104l115 78q26 -39 64 -39z" />
    <glyph glyph-name="egrave" unicode="&#xe8;" horiz-adv-x="1105" 
d="M352 1321l119 127l307 -287l-116 -127zM563 811q-98 0 -170 -61t-92 -175h502q-14 109 -78 173t-162 63zM1016 432h-721q14 -135 95 -205t194 -69q178 0 274 141l146 -111q-80 -104 -176 -156t-253 -52q-217 0 -355 143t-138 359t133 362t352 145q219 0 334 -142
t115 -362v-53z" />
    <glyph glyph-name="eacute" unicode="&#xe9;" horiz-adv-x="1105" 
d="M631 1448l119 -127l-310 -287l-116 127zM563 811q-98 0 -170 -61t-92 -175h502q-14 109 -78 173t-162 63zM575 -20q-217 0 -355 143t-138 359t133 362t352 145q219 0 334 -142t115 -362v-53h-721q14 -135 95 -205t194 -69q178 0 274 141l146 -111q-80 -104 -176 -156
t-253 -52z" />
    <glyph glyph-name="ecircumflex" unicode="&#xea;" horiz-adv-x="1105" 
d="M563 811q-98 0 -170 -61t-92 -175h502q-14 109 -78 173t-162 63zM410 1061l-129 129l200 203h146l202 -203l-127 -129l-147 170l-49 -55q-18 -23 -55 -66t-41 -49zM575 -20q-217 0 -355 143t-138 359t133 362t352 145q219 0 334 -142t115 -362v-53h-721q14 -135 95 -205
t194 -69q178 0 274 141l146 -111q-80 -104 -176 -156t-253 -52z" />
    <glyph glyph-name="edieresis" unicode="&#xeb;" horiz-adv-x="1105" 
d="M623 1255q0 51 34 86q35 35 85 35t86 -35t36 -86t-36 -86t-86 -35t-85 35q-34 35 -34 86zM242 1255q0 51 34 86q35 35 85 35t86 -35t36 -86t-36 -86t-86 -35t-85 35q-34 35 -34 86zM563 811q-98 0 -170 -61t-92 -175h502q-14 109 -78 173t-162 63zM575 -20
q-217 0 -355 143t-138 359t133 362t352 145q219 0 334 -142t115 -362v-53h-721q14 -135 95 -205t194 -69q178 0 274 141l146 -111q-80 -104 -176 -156t-253 -52z" />
    <glyph glyph-name="igrave" unicode="&#xec;" horiz-adv-x="468" 
d="M342 0h-217v967h217v-967zM-92 1321l119 127l307 -287l-117 -127z" />
    <glyph glyph-name="iacute" unicode="&#xed;" horiz-adv-x="473" 
d="M344 0h-217v967h217v-967zM434 1448l119 -127l-309 -287l-117 127z" />
    <glyph glyph-name="icircumflex" unicode="&#xee;" horiz-adv-x="487" 
d="M96 1061l-129 129l201 203h145l203 -203l-127 -129l-147 170l-49 -55q-17 -23 -55 -66t-42 -49zM348 0h-217v967h217v-967z" />
    <glyph glyph-name="idieresis" unicode="&#xef;" horiz-adv-x="485" 
d="M352 0h-217v967h217v-967zM313 1255q0 51 35 86t85 35t86 -35t36 -86t-36 -86t-86 -35t-85 36q-35 34 -35 85zM-68 1255q0 51 35 86t85 35t86 -35t36 -86t-36 -86t-86 -35t-85 36q-35 34 -35 85z" />
    <glyph glyph-name="eth" unicode="&#xf0;" horiz-adv-x="1140" 
d="M567 168q127 0 201 89t74 225t-74 226t-203 89q-129 0 -203 -89q-74 -90 -74 -224t76 -225t203 -91zM1055 566q0 -248 -127 -416q-126 -168 -354 -168t-363 146t-135 354t127 348t311 140t305 -141l2 2q-63 205 -246 355q-6 -12 -59 -96l-143 77l61 113q-82 41 -164 63
l78 189q98 -31 184 -74l62 115l158 -94l-68 -115q182 -137 276 -344t95 -454z" />
    <glyph glyph-name="ntilde" unicode="&#xf1;" horiz-adv-x="1167" 
d="M743 1094q-57 0 -150 40t-132 40q-59 0 -113 -54l-104 115q86 106 211 106q49 0 143 -41q94 -40 141 -40t111 63l113 -106q-82 -123 -220 -123zM1030 559v-559h-213v551q0 125 -62 193q-63 68 -163 67q-100 0 -171 -71t-73 -181v-559h-211v967h211v-66q0 -37 -6 -80
q119 168 301 168t285 -113q102 -114 102 -317z" />
    <glyph glyph-name="ograve" unicode="&#xf2;" horiz-adv-x="1167" 
d="M375 1321l119 127l307 -287l-117 -127zM586 168q127 0 206 89q78 89 78 227t-79 228q-80 89 -208 89t-208 -89q-80 -90 -80 -228t82 -227t209 -89zM584 -20q-209 0 -354 146q-144 146 -144 358t144 358t352 147q208 0 354 -146q145 -147 145 -359t-144 -358t-353 -146z
" />
    <glyph glyph-name="oacute" unicode="&#xf3;" horiz-adv-x="1167" 
d="M653 1448l119 -127l-309 -287l-117 127zM586 168q127 0 206 89q78 89 78 227t-79 228q-80 89 -208 89t-208 -89q-80 -90 -80 -228t82 -227t209 -89zM584 -20q-209 0 -354 146q-144 146 -144 358t144 358t352 147q208 0 354 -146q145 -147 145 -359t-144 -358t-353 -146z
" />
    <glyph glyph-name="ocircumflex" unicode="&#xf4;" horiz-adv-x="1167" 
d="M432 1061l-129 129l201 203h145l203 -203l-127 -129l-147 170l-50 -55q-18 -23 -55 -66t-41 -49zM586 168q127 0 206 89q78 89 78 227t-79 228q-80 89 -208 89t-208 -89q-80 -90 -80 -228t82 -227t209 -89zM584 -20q-209 0 -354 146q-144 146 -144 358t144 358t352 147
q208 0 354 -146q145 -147 145 -359t-144 -358t-353 -146z" />
    <glyph glyph-name="otilde" unicode="&#xf5;" horiz-adv-x="1167" 
d="M735 1094q-57 0 -150 40t-132 40q-59 0 -113 -54l-104 115q86 106 210 106q50 0 144 -41q94 -40 141 -40t111 63l112 -106q-82 -123 -219 -123zM586 168q127 0 206 89q78 89 78 227t-79 228q-80 89 -208 89t-208 -89q-80 -90 -80 -228t82 -227t209 -89zM584 -20
q-209 0 -354 146q-144 146 -144 358t144 358t352 147q208 0 354 -146q145 -147 145 -359t-144 -358t-353 -146z" />
    <glyph glyph-name="odieresis" unicode="&#xf6;" horiz-adv-x="1167" 
d="M647 1255q0 51 35 86t85 35t86 -35t36 -86t-36 -86t-86 -35t-85 36q-35 34 -35 85zM266 1255q0 51 35 86t85 35t86 -35t36 -86t-36 -86t-86 -35t-85 36q-35 34 -35 85zM586 168q127 0 206 89q78 89 78 227t-79 228q-80 89 -208 89t-208 -89q-80 -90 -80 -228t82 -227
t209 -89zM584 -20q-209 0 -354 146q-144 146 -144 358t144 358t352 147q208 0 354 -146q145 -147 145 -359t-144 -358t-353 -146z" />
    <glyph glyph-name="divide" unicode="&#xf7;" horiz-adv-x="874" 
d="M297 471q0 57 41 98t98 41q56 0 98 -41t42 -98t-42 -98q-40 -41 -98 -41t-98 41q-41 41 -41 98zM297 1077q0 57 41 99t98 41q56 0 98 -41q42 -40 42 -98t-42 -99q-40 -41 -98 -41t-98 41q-41 41 -41 98zM61 692v162h752v-162h-752z" />
    <glyph glyph-name="oslash" unicode="&#xf8;" horiz-adv-x="1167" 
d="M295 486q0 -136 76 -222l309 520q-45 16 -96 17q-129 1 -209 -89t-80 -226zM584 168q129 0 208 89q78 89 78 229t-86 233l-313 -529q52 -22 113 -22zM584 -20q-209 0 -354 146q-144 146 -144 358t144 358t352 147q208 0 354 -146q145 -147 145 -359t-144 -358t-353 -146z
" />
    <glyph glyph-name="ugrave" unicode="&#xf9;" horiz-adv-x="1105" 
d="M348 1321l119 127l307 -287l-117 -127zM1008 967v-967h-211v63q0 23 4 80q-117 -166 -299 -166t-285 113q-102 113 -102 318v559h213v-551q0 -125 62 -193q62 -67 160 -67t172 74q75 74 75 188v549h211z" />
    <glyph glyph-name="uacute" unicode="&#xfa;" horiz-adv-x="1105" 
d="M627 1458l118 -127l-309 -287l-117 127zM1008 967v-967h-211v63q0 23 4 80q-117 -166 -299 -166t-285 113q-102 113 -102 318v559h213v-551q0 -125 62 -193q62 -67 160 -67t172 74q75 74 75 188v549h211z" />
    <glyph glyph-name="ucircumflex" unicode="&#xfb;" horiz-adv-x="1105" 
d="M416 1061l-129 129l200 203h146l203 -203l-127 -129l-148 170l-49 -55q-18 -23 -55 -66t-41 -49zM1008 967v-967h-211v63q0 23 4 80q-117 -166 -299 -166t-285 113q-102 113 -102 318v559h213v-551q0 -125 62 -193q62 -67 160 -67t172 74q75 74 75 188v549h211z" />
    <glyph glyph-name="udieresis" unicode="&#xfc;" horiz-adv-x="1105" 
d="M252 1255q0 51 35 86t85 35t86 -35t36 -86t-36 -86t-86 -35t-85 36q-35 34 -35 85zM633 1255q0 51 35 86t85 35t86 -35q35 -35 35 -86t-36 -86t-85 -35q-50 0 -85 36q-35 34 -35 85zM1008 967v-967h-211v63q0 23 4 80q-117 -166 -299 -166t-285 113q-102 113 -102 318
v559h213v-551q0 -125 62 -193q62 -67 160 -67t172 74q75 74 75 188v549h211z" />
    <glyph glyph-name="yacute" unicode="&#xfd;" horiz-adv-x="1007" 
d="M578 1448l118 -127l-309 -287l-117 127zM102 -582l287 648l-375 901h228l186 -453q27 -64 51 -130q23 -67 25 -69l10 25q29 77 74 174l196 453h230l-686 -1549h-226z" />
    <glyph glyph-name="thorn" unicode="&#xfe;" horiz-adv-x="1155" 
d="M598 166q116 0 190 90t74 228t-74 226t-190 89q-116 0 -184 -86q-68 -87 -68 -227t68 -230t184 -90zM646 -20q-189 0 -308 155q4 -78 4 -143v-504h-205v2048h211v-653q0 -3 -1 -15t-1 -20q113 139 300 139t307 -141q120 -142 120 -360t-119 -362t-308 -144z" />
    <glyph glyph-name="ydieresis" unicode="&#xff;" horiz-adv-x="1007" 
d="M578 1255q0 51 34 86q35 35 85 35t86 -35t36 -86t-36 -86t-86 -35t-85 35q-34 35 -34 86zM197 1255q0 51 34 86q35 35 85 35t86 -35t36 -86t-36 -86t-86 -35t-85 35q-34 35 -34 86zM102 -582l287 648l-375 901h228l186 -453l76 -199q35 84 84 199l196 453h230l-686 -1549
h-226z" />
    <glyph glyph-name="dotlessi" unicode="&#x131;" horiz-adv-x="393" 
d="M305 0h-217v967h217v-967z" />
    <glyph glyph-name="Lslash" unicode="&#x141;" horiz-adv-x="950" 
d="M156 1434h217v-613l301 90l49 -170l-350 -104v-432h538v-205h-755v573l-103 -30l-51 170l154 45v676z" />
    <glyph glyph-name="lslash" unicode="&#x142;" horiz-adv-x="389" 
d="M104 1559h218v-709l61 18l49 -163l-110 -33v-649h-218v583l-112 -33l-47 166l159 47v773z" />
    <glyph glyph-name="OE" unicode="&#x152;" horiz-adv-x="1687" 
d="M737 199v1036q-223 0 -368 -145q-145 -144 -145 -374t144 -374q146 -144 369 -143zM1556 0h-819q-307 0 -520 207t-213 509t214 510t519 208h819v-199h-602v-385h453v-197h-453v-456h602v-197z" />
    <glyph glyph-name="oe" unicode="&#x153;" horiz-adv-x="1849" 
d="M1314 811q-101 0 -172 -63t-89 -173h501q-6 109 -72 173q-67 63 -168 63zM565 168q127 0 207 89t80 227t-80 228t-209 89q-129 0 -209 -89q-80 -90 -80 -228t82 -227t209 -89zM1341 -20q-141 0 -243 66t-154 183q-56 -117 -160 -183t-233 -66q-201 0 -343 144t-142 360
t141 360t340 145q131 -1 234 -67t161 -183q113 250 391 250q211 0 323 -142t111 -362v-53h-720q8 -131 87 -204t199 -72q180 0 277 143l143 -111q-79 -102 -175 -155t-237 -53z" />
    <glyph glyph-name="Scaron" unicode="&#x160;" horiz-adv-x="1009" 
d="M229 1778l129 129q141 -166 146 -170q26 26 35 39l112 131l129 -129l-205 -203h-145q-38 39 -106 107zM500 -20q-145 0 -266 74q-120 75 -173 216l187 107q35 -94 102 -147q68 -52 159 -52t146 60t55 144q0 82 -56 150q-58 68 -139 127t-162 124t-138 153t-57 186
q0 144 101 238t241 94q205 0 307 -164l-158 -129q-63 96 -143 96q-57 -1 -94 -39t-37 -96t57 -115q57 -59 138 -117t163 -126t139 -163t58 -204q0 -181 -123 -299t-307 -118z" />
    <glyph glyph-name="scaron" unicode="&#x161;" horiz-adv-x="860" 
d="M352 1100q-55 58 -200 203l129 129q141 -166 145 -170q26 26 35 38l112 132l129 -129l-204 -203h-146zM428 160q65 0 107 31q41 32 41 75q-1 74 -166 141q-70 27 -139 61t-117 96t-48 149q0 127 94 201t214 73q195 0 299 -141q-47 -37 -138 -115q-57 82 -159 82
q-45 0 -76 -25q-31 -24 -31 -66t49 -75t119 -61q69 -28 139 -65q70 -36 119 -99t49 -148q0 -127 -95 -211t-255 -83q-262 0 -393 186l141 123q43 -61 112 -95t134 -34z" />
    <glyph glyph-name="Ydieresis" unicode="&#x178;" horiz-adv-x="1001" 
d="M567 1755q0 51 35 86t85 35t86 -35t36 -86t-36 -86t-86 -35t-85 35t-35 86zM186 1755q0 51 35 86t85 35t86 -35t36 -86t-36 -86t-86 -35t-85 35t-35 86zM610 0h-217v713l-432 721h250l248 -430q31 -55 43 -91q0 16 43 93l258 428h252l-445 -723v-711z" />
    <glyph glyph-name="Zcaron" unicode="&#x17d;" horiz-adv-x="1187" 
d="M317 1778l129 129q141 -166 146 -170q26 26 35 39l112 131l129 -129l-204 -203h-146q-38 39 -106 107zM1055 0h-946v170l628 993l47 70q-47 -2 -86 -2h-559v203h916v-172l-633 -1002q-24 -42 -43 -61q35 4 72 4h604v-203z" />
    <glyph glyph-name="zcaron" unicode="&#x17e;" horiz-adv-x="1003" 
d="M426 1075q-37 39 -201 203l129 129q141 -166 146 -170q26 26 35 39l112 131l129 -129l-205 -203h-145zM920 190v-190h-865v156l588 624q-84 -4 -168 -4h-389v191h834v-158l-594 -625l182 6h412z" />
    <glyph glyph-name="florin" unicode="&#x192;" horiz-adv-x="794" 
d="M610 1563q129 0 215 -69t121 -191l-188 -70q-35 135 -137 135q-61 0 -103 -52t-53 -136l-27 -213h203q-6 -74 -23 -195h-204l-92 -749q-25 -207 -108 -321t-247 -114q-20 0 -69 9l30 206q20 -4 31 -4q119 0 137 156l101 817h-146l23 195h147l17 131q29 272 151 382
q92 83 221 83z" />
    <glyph glyph-name="circumflex" unicode="&#x2c6;" horiz-adv-x="602" 
d="M152 1061l-129 129l200 203h146l202 -203l-127 -129l-147 170l-49 -55q-18 -23 -55 -66t-41 -49z" />
    <glyph glyph-name="caron" unicode="&#x2c7;" horiz-adv-x="600" 
d="M23 1278l129 129q141 -166 145 -170q26 26 35 39l112 131l129 -129l-204 -203h-146q-56 59 -200 203z" />
    <glyph glyph-name="ring" unicode="&#x2da;" horiz-adv-x="546" 
d="M53 1538q0 94 66 160t160 66q95 0 161 -66t66 -160t-67 -161t-161 -67t-159 68q-66 66 -66 160zM188 1538q0 -36 27 -64t64 -28t63 28t27 64q0 36 -27 63q-28 25 -64 25t-63 -26t-27 -62z" />
    <glyph glyph-name="tilde" unicode="&#x2dc;" horiz-adv-x="974" 
d="M592 1053q-56 0 -150 40t-142 40t-103 -54l-105 115q86 106 211 106q49 0 143 -40t142 -41q48 0 110 63q50 -50 113 -106q-82 -123 -219 -123z" />
    <glyph glyph-name="endash" unicode="&#x2013;" horiz-adv-x="989" 
d="M907 692h-825v172h825v-172z" />
    <glyph glyph-name="emdash" unicode="&#x2014;" horiz-adv-x="1153" 
d="M1071 692h-989v172h989v-172z" />
    <glyph glyph-name="quoteleft" unicode="&#x2018;" horiz-adv-x="372" 
d="M332 1151q0 -53 -40 -93t-106 -40t-104 51q-39 51 -39 140t55 179t150 123l59 -96q-77 -43 -114 -131q139 -23 139 -133z" />
    <glyph glyph-name="quoteright" unicode="&#x2019;" horiz-adv-x="356" 
d="M33 1317q0 51 39 91q40 40 106 40t105 -52t39 -141t-56 -179t-149 -122l-60 97q78 43 115 131q-139 23 -139 135z" />
    <glyph glyph-name="quotesinglbase" unicode="&#x201a;" horiz-adv-x="505" 
d="M90 133q0 61 44 107t119 45t119 -59t44 -157t-64 -197t-166 -134l-67 110q69 35 98 85q10 17 21 36l8 19q-63 0 -110 42q-46 42 -46 103z" />
    <glyph glyph-name="quotedblleft" unicode="&#x201c;" horiz-adv-x="727" 
d="M324 1153q0 -55 -39 -95t-106 -40t-105 51t-39 139q0 88 56 178q57 90 149 125l61 -96q-78 -45 -117 -131q60 -8 100 -42t40 -89zM692 1153q0 -55 -39 -95t-105 -40t-106 51q-39 51 -39 139q1 88 57 178t148 125l62 -96q-78 -45 -117 -131q61 -8 100 -42t39 -89z" />
    <glyph glyph-name="quotedblright" unicode="&#x201d;" horiz-adv-x="727" 
d="M403 1317q0 55 39 95t106 40q68 0 106 -50t38 -139t-56 -180q-57 -90 -149 -125l-61 99q76 41 117 131q-61 6 -101 40q-39 34 -39 89zM35 1317q0 55 39 95q40 40 106 40t105 -50t39 -139t-56 -179t-149 -126l-62 99q76 41 117 131q-61 6 -100 40t-39 89z" />
    <glyph glyph-name="quotedblbase" unicode="&#x201e;" horiz-adv-x="620" 
 />
    <glyph glyph-name="dagger" unicode="&#x2020;" horiz-adv-x="702" 
d="M219 842q-62 0 -110 -54l-105 115q86 106 211 107q14 0 39 -4v530h197v-602q23 -6 45 -6q51 0 114 63l113 -106q-82 -123 -219 -123q-29 0 -53 6v-1014h-197v1084q-25 4 -35 4z" />
    <glyph glyph-name="daggerdbl" unicode="&#x2021;" horiz-adv-x="739" 
d="M221 887q-57 0 -110 -53l-105 114q86 106 211 107q20 0 57 -8v489h197v-561q8 -2 27 -2q51 0 114 63l113 -106q-82 -123 -219 -123q-25 0 -35 2v-172q8 -2 27 -2q51 0 114 63q63 -56 113 -106q-82 -123 -219 -123q-25 0 -35 2v-717h-197v787q-37 8 -53 8q-57 0 -110 -53
l-105 114q86 106 211 107q20 0 57 -8v170q-37 8 -53 8z" />
    <glyph glyph-name="bullet" unicode="&#x2022;" horiz-adv-x="585" 
d="M205 757q-1 -32 23 -56q24 -23 57 -23t55 24t22 55q0 33 -22 55t-56 22q-32 0 -56 -22t-23 -55zM61 757q0 93 66 157t158 65q91 0 157 -65q66 -66 66 -158t-66 -158t-158 -66t-157 66q-66 66 -66 159z" />
    <glyph glyph-name="ellipsis" unicode="&#x2026;" horiz-adv-x="1402" 
d="M948 132q0 62 45 108t107 45q62 0 108 -45q45 -46 45 -108t-45 -107t-107 -45t-108 45q-45 45 -45 107zM528 132q0 62 45 108t107 45q62 0 108 -45q46 -46 46 -108t-46 -107t-107 -45q-62 0 -108 45q-45 45 -45 107zM109 132q0 62 45 108t107 45q61 0 107 -45
q46 -46 46 -108t-45 -107t-107 -45t-108 45q-45 45 -45 107z" />
    <glyph glyph-name="perthousand" unicode="&#x2030;" horiz-adv-x="1363" 
d="M1706 160q53 0 92 38t39 92t-39 93t-92 39t-92 -39t-39 -93t39 -92t92 -38zM1707 -6q-124 0 -210 86t-86 210t86 210t210 86t210 -86t86 -210t-86 -210t-210 -86zM1037 160q54 0 93 38t39 92t-39 93t-93 39t-92 -39t-38 -93t38 -92t92 -38zM1037 -6q-124 0 -210 86
t-86 210t86 210t210 86t210 -86t86 -210t-86 -210t-210 -86zM351 1012q54 0 93 38t39 92t-39 92t-93 38t-92 -38t-38 -92t38 -92t92 -38zM351 846q-124 0 -210 86t-86 210t86 210t210 86t210 -86t86 -210t-86 -210t-210 -86zM358 0h-227l983 1434h227z" />
    <glyph glyph-name="guilsinglleft" unicode="&#x2039;" horiz-adv-x="757" 
d="M547 274q-308 308 -496 500l496 496l127 -129q-312 -310 -330 -328l-39 -39l369 -371z" />
    <glyph glyph-name="guilsinglright" unicode="&#x203a;" horiz-adv-x="753" 
d="M209 274l-127 129l369 371l-369 367l127 129l496 -496z" />
    <glyph glyph-name="fraction" unicode="&#x2044;" horiz-adv-x="1001" 
d="M-29 0l766 1434h215l-766 -1434h-215z" />
    <glyph glyph-name="Euro" unicode="&#x20ac;" horiz-adv-x="1492" 
d="M35 553v139h86v25q0 59 10 127h-96v139h135q82 207 268 338t416 131q322 0 535 -233l-158 -146q-168 172 -377 172q-139 1 -257 -71t-187 -191h747v-139h-803q-14 -57 -14 -127v-25h817v-139h-792q49 -162 183 -264t306 -103q209 0 381 179l164 -142q-221 -244 -545 -243
q-262 0 -461 162t-254 411h-104z" />
    <glyph glyph-name="trademark" unicode="&#x2122;" horiz-adv-x="1210" 
d="M291 950h-135v500h-123v125h377v-125h-119v-500zM1071 1577l98 -627h-135l-45 363l-4 51q-4 -4 -14 -49l-113 -365h-108l-95 305q-20 63 -30 111q0 -35 -11 -113l-39 -303h-135l97 627h137l102 -338q6 -18 27 -102q0 16 28 102l105 338h135z" />
    <glyph glyph-name="minus" unicode="&#x2212;" horiz-adv-x="907" 
d="M66 682v162h751v-162h-751z" />
    <glyph glyph-name="A.small" unicode="&#x2423;" horiz-adv-x="1093" 
d="M549 866q-14 -92 -80 -280l-66 -183h291l-63 183q-68 188 -82 280zM840 0l-82 227h-418l-80 -227h-229l401 1112h232l405 -1112h-229z" />
    <glyph glyph-name="ff" unicode="&#xfb00;" horiz-adv-x="1390" 
d="M1331 778h-221v-778h-217v778h-150v189h150v235q0 164 95 262q96 98 236 98t224 -79l-98 -162q-40 47 -104 47t-100 -45t-36 -129v-227h221v-189zM635 778h-221v-778h-217v778h-150v189h150v235q0 164 95 262t235 98t225 -79l-99 -162q-39 47 -103 47t-100 -45t-36 -129
v-227h221v-189z" />
    <glyph glyph-name="NULL" 
 />
    <glyph glyph-name="CR" horiz-adv-x="614" 
 />
    <glyph glyph-name="_0000" 
 />
    <glyph glyph-name="_0001" 
 />
    <glyph glyph-name="_0002" 
 />
    <glyph glyph-name="_0003" 
 />
    <glyph glyph-name="_0004" 
 />
    <glyph glyph-name="_0016" 
 />
    <glyph glyph-name="_0007" 
 />
    <glyph glyph-name="_0009" 
 />
    <glyph glyph-name="_0014" 
 />
    <glyph glyph-name="_0015" 
 />
    <glyph glyph-name="_0017" 
 />
    <glyph glyph-name="a.alt" horiz-adv-x="1148" 
d="M551 166q115 0 183 90t69 230q0 140 -69 226q-68 86 -184 87q-116 0 -190 -88q-74 -89 -74 -227t76 -228q74 -90 189 -90zM1012 0h-205q0 80 4 141q-117 -161 -307 -161t-309 144t-119 362t120 360t309 141q189 0 300 -141q-4 20 -4 37v84h211v-967z" />
    <glyph glyph-name="_0018" 
 />
    <glyph glyph-name="_0019" 
 />
    <glyph glyph-name="_0020" 
 />
    <glyph glyph-name="_0021" 
 />
    <glyph glyph-name="_0022" 
 />
    <glyph glyph-name="agrave.alt" horiz-adv-x="1144" 
d="M291 1341l119 127l307 -286l-117 -127zM545 166q115 0 183 90t69 230q0 140 -69 226q-68 86 -184 87q-116 0 -190 -88q-74 -89 -74 -227t76 -228q74 -90 189 -90zM1006 0h-205q0 80 4 141q-117 -161 -307 -161t-310 144q-118 144 -118 362t119 360q119 141 309 141
t301 -141q-4 20 -4 37v84h211v-967z" />
    <glyph glyph-name="aacute.alt" horiz-adv-x="1144" 
d="M633 1468l119 -127l-310 -286l-116 127zM545 166q115 0 183 90t69 230q0 140 -69 226q-68 86 -184 87q-116 0 -190 -88q-74 -89 -74 -227t76 -228q74 -90 189 -90zM1006 0h-205q0 80 4 141q-117 -161 -307 -161t-310 144q-118 144 -118 362t119 360q119 141 309 141
t301 -141q-4 20 -4 37v84h211v-967z" />
    <glyph glyph-name="acircumflex.alt" horiz-adv-x="1144" 
d="M399 1061l-129 129l201 203h145l203 -203l-127 -129l-147 170l-49 -55q-18 -23 -56 -66t-41 -49zM545 166q115 0 183 90t69 230q0 140 -69 226q-68 86 -184 87q-116 0 -190 -88q-74 -89 -74 -227t76 -228q74 -90 189 -90zM1006 0h-205q0 80 4 141q-117 -161 -307 -161
t-310 144q-118 144 -118 362t119 360q119 141 309 141t301 -141q-4 20 -4 37v84h211v-967z" />
    <glyph glyph-name="atilde.alt" horiz-adv-x="1144" 
d="M707 1094q-57 0 -151 40t-132 40q-59 0 -113 -54l-104 115q86 106 211 106q49 0 143 -41q94 -40 141 -40t111 63q64 -64 113 -106q-82 -123 -219 -123zM545 166q115 0 183 90t69 230q0 140 -69 226q-68 86 -184 87q-116 0 -190 -88q-74 -89 -74 -227t76 -228
q74 -90 189 -90zM1006 0h-205q0 80 4 141q-117 -161 -307 -161t-310 144q-118 144 -118 362t119 360q119 141 309 141t301 -141q-4 20 -4 37v84h211v-967z" />
    <glyph glyph-name="adieresis.alt" horiz-adv-x="1144" 
d="M635 1225q0 51 35 86t85 35t86 -35t36 -86t-36 -86t-86 -35t-85 35t-35 86zM254 1225q0 51 35 86t85 35t86 -35t36 -86t-36 -86t-86 -35t-85 35t-35 86zM545 166q115 0 183 90t69 230q0 140 -69 226q-68 86 -184 87q-116 0 -190 -88q-74 -89 -74 -227t76 -228
q74 -90 189 -90zM1006 0h-205q0 80 4 141q-117 -161 -307 -161t-310 144q-118 144 -118 362t119 360q119 141 309 141t301 -141q-4 20 -4 37v84h211v-967z" />
    <glyph glyph-name="aring.alt" horiz-adv-x="1144" 
d="M471 1292q0 -36 27 -64q28 -28 64 -28t63 28t27 64t-27 63q-27 25 -64 25t-63 -26t-27 -62zM336 1292q0 94 65 160q66 66 160 66t161 -66q66 -66 66 -160t-66 -160t-161 -67q-93 1 -159 67t-66 160zM545 166q115 0 183 90t69 230q0 140 -69 226q-68 86 -184 87
q-116 0 -190 -88q-74 -89 -74 -227t76 -228q74 -90 189 -90zM1006 0h-205q0 80 4 141q-117 -161 -307 -161t-310 144q-118 144 -118 362t119 360q119 141 309 141t301 -141q-4 20 -4 37v84h211v-967z" />
    <glyph glyph-name="B.small" horiz-adv-x="1056" 
d="M498 934h-119v-250h196q45 2 70 38t25 96q0 116 -172 116zM604 518h-225v-330h223q70 0 115 48t45 121t-44 117t-114 44zM616 0h-452v1112h440q123 0 192 -80q68 -80 68 -194t-82 -191q92 -43 144 -125t51 -182q0 -137 -93 -239q-94 -101 -268 -101z" />
    <glyph glyph-name="C.small" horiz-adv-x="1165" 
d="M655 -18q-245 0 -409 166t-164 409q0 242 164 409q164 166 410 166t415 -186l-149 -143q-115 125 -268 125t-252 -106t-99 -266q0 -161 99 -264q99 -104 264 -104t278 154l164 -127q-170 -233 -453 -233z" />
    <glyph glyph-name="D.small" horiz-adv-x="1159" 
d="M379 195h160q301 0 301 374q0 348 -334 349h-127v-723zM164 0v1112h319q279 0 425 -141t146 -401t-123 -414q-124 -156 -386 -156h-381z" />
    <glyph glyph-name="E.small" horiz-adv-x="1042" 
d="M909 199v-199h-745v1112h745v-199h-530v-231h405v-184h-405v-299h530z" />
    <glyph glyph-name="F.small" horiz-adv-x="948" 
d="M379 0h-215v1114h745v-199h-530v-253h405v-197h-405v-465z" />
    <glyph glyph-name="G.small" horiz-adv-x="1249" 
d="M668 -20q-244 0 -409 168t-165 409q0 242 165 409t410 167t416 -187l-149 -143q-120 125 -270 125t-249 -106t-99 -266q0 -161 98 -264q100 -104 253 -104t255 107v156h-211v174h409v-418q-168 -227 -454 -227z" />
    <glyph glyph-name="H.small" horiz-adv-x="1126" 
d="M963 0h-215v494h-369v-494h-215v1112h215v-424h369v424h215v-1112z" />
    <glyph glyph-name="I.small" horiz-adv-x="704" 
d="M592 0h-479v195h133v725h-133v194h479v-194h-131v-725h131v-195z" />
    <glyph glyph-name="J.small" horiz-adv-x="702" 
d="M332 375v737h219v-715q0 -195 -95 -307t-270 -110q-77 -1 -145 24l65 195q39 -16 74 -17q72 0 112 50t40 143z" />
    <glyph glyph-name="K.small" horiz-adv-x="1091" 
d="M381 739q0 -52 -4 -84v-14q0 10 57 82l299 389h248l-344 -432l430 -680h-250l-276 442q-14 23 -37 72l-123 -154v-360h-217v1112h217v-373z" />
    <glyph glyph-name="L.small" horiz-adv-x="925" 
d="M854 205v-205h-690v1112h215v-907h475z" />
    <glyph glyph-name="M.small" horiz-adv-x="1513" 
d="M758 346q0 39 24 111l228 655h256l161 -1112h-233l-76 645q-12 115 -12 168q-6 -61 -39 -158l-221 -655h-172l-223 655q-21 62 -39 136l-6 24q2 -82 -9 -170l-71 -645h-234l160 1112h256l227 -655q23 -63 23 -111z" />
    <glyph glyph-name="N.small" horiz-adv-x="1138" 
d="M766 1112h209v-1112h-209v225l-350 467q-43 53 -51 80v-6q4 -12 4 -39l2 -51v-676h-207v1112h211l348 -481q25 -33 47 -78v6l-4 61v492z" />
    <glyph glyph-name="O.small" horiz-adv-x="1320" 
d="M662 180q158 0 260 108t102 270t-102 270t-261 108t-261 -108t-103 -270t103 -270t262 -108zM661 1133q243 0 411 -166t169 -409q-1 -242 -169 -410t-411 -168t-411 168t-168 410q0 243 168 409t411 166z" />
    <glyph glyph-name="P.small" horiz-adv-x="999" 
d="M543 563q94 0 147 49t53 127t-54 125t-146 47h-162v-348h162zM381 0h-217v1112h391q188 0 296 -100q107 -100 107 -272t-106 -275q-106 -102 -297 -103h-174v-362z" />
    <glyph glyph-name="Q.small" horiz-adv-x="1337" 
d="M662 180q115 0 202 60l-125 125l125 122l115 -116q45 86 45 188q0 161 -102 269t-261 108t-261 -108t-103 -270t103 -270t262 -108zM662 -20q-244 0 -412 168t-168 410q0 243 168 409t411 166t411 -166t169 -408q0 -188 -108 -340l124 -125l-124 -123l-123 123
q-158 -114 -348 -114z" />
    <glyph glyph-name="R.small" horiz-adv-x="1085" 
d="M543 563q94 0 147 49t53 127t-54 125t-146 47h-162v-348h162zM381 0h-217v1112h391q188 0 296 -100t107 -271q0 -242 -192 -335l213 -406h-231l-183 362h-184v-362z" />
    <glyph glyph-name="S.small" horiz-adv-x="925" 
d="M458 178q60 0 98 41t38 94t-48 99t-117 78t-139 71t-117 109q-48 70 -48 164q0 133 99 216t231 83q182 0 299 -140l-152 -125q-59 80 -143 80q-49 0 -81 -30t-32 -77q0 -48 49 -87t120 -73t143 -76t120 -117q49 -75 49 -177q0 -139 -100 -235q-101 -96 -251 -96t-253 67
q-102 68 -137 197l193 75q23 -69 71 -105t108 -36z" />
    <glyph glyph-name="T.small" horiz-adv-x="827" 
d="M520 0h-215v918h-260v194h737v-194h-262v-918z" />
    <glyph glyph-name="U.small" horiz-adv-x="1136" 
d="M362 428q0 -120 56 -184t150 -64t150 62t56 186v684h221v-659q1 -242 -119 -358q-120 -115 -308 -115t-307 116q-120 116 -120 357v659h221v-684z" />
    <glyph glyph-name="V.small" horiz-adv-x="1048" 
d="M260 1112l211 -668l57 -219q23 113 56 219l207 668h229l-379 -1112h-233l-377 1112h229z" />
    <glyph glyph-name="W.small" horiz-adv-x="1576" 
d="M788 350q0 -2 -5 -20t-13 -49t-16 -60l-82 -223h-217l-414 1114h229l269 -735q21 -67 29 -100q7 -34 10 -37q10 53 36 135l64 182l-207 555h209l74 -203q37 -100 37 -141l4 23q19 74 34 118l74 203h205l-207 -555l68 -180q37 -94 37 -137l6 22q12 62 32 115l267 735h223
l-410 -1112h-223l-78 221q-35 94 -35 129z" />
    <glyph glyph-name="X.small" horiz-adv-x="917" 
d="M586 563l297 -563h-234l-153 299q-35 61 -39 90q-10 -29 -39 -90l-146 -299h-233l289 563l-287 549h238l139 -281l39 -90q0 12 39 90l139 281h237z" />
    <glyph glyph-name="Y.small" horiz-adv-x="960" 
d="M586 0h-217v514l-351 598h246l170 -307q8 -17 16 -33l14 -28l13 -29q0 8 43 90l174 307h248l-356 -600v-512z" />
    <glyph glyph-name="Z.small" horiz-adv-x="937" 
d="M852 0h-758v170l490 750q-53 -4 -92 -5h-379v197h723v-170l-441 -688l-43 -61q35 4 72 4h428v-197z" />
    <glyph glyph-name="one.oldstyle" horiz-adv-x="808" 
d="M727 0h-606v195h194v682l-151 -78l-84 174l287 139h165v-917h195v-195z" />
    <glyph glyph-name="two.oldstyle" horiz-adv-x="1110" 
d="M983 0h-870v172q306 109 504 324q116 125 116 245q0 87 -46 139t-132 52t-136 -55t-50 -129t16 -123l-205 -60q-31 86 -30 170q0 170 114 284q116 114 304 114q188 1 288 -105t100 -276t-128 -310t-302 -231h457v-211z" />
    <glyph glyph-name="three.oldstyle" horiz-adv-x="993" 
d="M461 -242q-276 0 -396 198q-24 38 -30 69l186 92q27 -70 88 -116t157 -46t156 62q60 63 60 161t-64 162t-180 63h-43v168q97 1 153 55t56 130t-41 122t-101 46t-102 -41t-43 -113h-213q0 166 106 260t252 94t252 -91t107 -247q0 -186 -149 -274q238 -80 237 -336
q-1 -188 -121 -303t-327 -115z" />
    <glyph glyph-name="four.oldstyle" horiz-adv-x="1075" 
d="M584 252v465l-305 -465h305zM801 -229h-217v292h-543v152l588 897h172v-860h190v-189h-190v-292z" />
    <glyph glyph-name="five.oldstyle" horiz-adv-x="1107" 
d="M889 907h-531v-291q90 55 215 56q219 0 341 -130t122 -314t-131 -327q-131 -142 -362 -143q-103 0 -187 29t-153 88t-109 137l182 109q33 -66 100 -114q66 -48 178 -48t184 82t71 187q0 106 -69 184t-191 77q-61 0 -122 -27t-95 -75l-164 94v631h721v-205z" />
    <glyph glyph-name="six.oldstyle" horiz-adv-x="1134" 
d="M575 164q113 0 179 84t66 200t-66 198q-64 82 -178 81q-114 0 -180 -83t-66 -200q0 -116 66 -198t179 -82zM575 -20q-212 0 -335 154t-123 388q0 293 150 522q151 229 448 308l69 -189q-98 -27 -180 -77t-127 -102q-95 -110 -121 -177l-10 -31l2 -2q106 125 286 125
t289 -132t109 -317q0 -186 -122 -328t-335 -142z" />
    <glyph glyph-name="seven.oldstyle" horiz-adv-x="980" 
d="M326 -231q0 390 129 708q63 158 101 235t101 189h-591v211h831v-168q-14 -20 -39 -57t-85 -159t-107 -251t-83 -323t-34 -385h-223z" />
    <glyph glyph-name="eight.oldstyle" horiz-adv-x="1058" 
d="M529 813q79 0 124 54t45 130t-44 128q-44 53 -124 53t-124 -52t-46 -129q0 -76 45 -130t124 -54zM297 393q0 -97 61 -163t171 -66t170 66t61 163q0 96 -60 164t-171 68q-110 0 -171 -68t-61 -164zM529 -20q-209 0 -325 118t-116 279q0 125 60 216t163 140
q-145 96 -145 277q0 139 96 242q96 104 268 104t268 -102t97 -244q0 -184 -147 -279q220 -105 220 -371q0 -144 -114 -262q-115 -118 -325 -118z" />
    <glyph glyph-name="nine.oldstyle" horiz-adv-x="1132" 
d="M556 385q114 0 180 83t67 200q-1 116 -67 198t-178 82t-178 -84t-67 -200q0 -116 65 -197q64 -82 178 -82zM558 1133q212 0 335 -154t123 -389q0 -293 -151 -522t-447 -308l-70 191q98 27 180 77t127 101q98 111 119 176l12 31l-2 2q-106 -125 -285 -125t-289 132
t-110 317t123 328t335 143z" />
    <glyph glyph-name="zero.oldstyle" horiz-adv-x="1257" 
d="M631 180q158 0 260 108t102 270t-102 270t-261 108t-261 -108q-103 -108 -103 -270t104 -270t261 -108zM630 1133q244 0 412 -166t168 -409q0 -242 -168 -410t-412 -168q-243 0 -411 168t-168 410q0 243 168 409t411 166z" />
    <glyph glyph-name="Agrave.small" horiz-adv-x="1097" 
d="M549 866q-14 -92 -80 -280l-66 -183h291l-63 183q-68 188 -82 280zM254 1454l119 127l307 -287l-117 -127zM840 0l-82 227h-418l-80 -227h-229l401 1112h232l405 -1112h-229z" />
    <glyph glyph-name="Aacute.small" horiz-adv-x="1097" 
d="M549 866q-14 -92 -80 -280l-66 -183h291l-63 183q-68 188 -82 280zM682 1571l119 -127l-309 -287l-117 127zM840 0l-82 227h-418l-80 -227h-229l401 1112h232l405 -1112h-229z" />
    <glyph glyph-name="Acircumflex.small" horiz-adv-x="1097" 
d="M549 866q-14 -92 -80 -280l-66 -183h291l-63 183q-68 188 -82 280zM401 1184l-129 129l201 203h145l203 -203l-127 -129l-147 170l-49 -56q-18 -24 -56 -66t-41 -48zM840 0l-82 227h-418l-80 -227h-229l401 1112h232l405 -1112h-229z" />
    <glyph glyph-name="Atilde.small" horiz-adv-x="1099" 
d="M549 866q-14 -92 -80 -280l-66 -183h291l-63 183q-68 188 -82 280zM694 1393q47 0 111 63q20 -18 56 -54t57 -52q-82 -123 -220 -123q-57 0 -150 40t-133 40q-40 -1 -59 -13q-18 -12 -29 -20t-24 -21l-104 115q86 106 211 107q51 0 144 -41t140 -41zM840 0l-82 227h-418
l-80 -227h-229l401 1112h232l405 -1112h-229z" />
    <glyph glyph-name="Adieresis.small" horiz-adv-x="1097" 
d="M616 1337q0 51 35 86t85 35t86 -35t36 -86t-36 -86t-86 -35t-85 36q-35 34 -35 85zM236 1337q0 51 34 86q35 35 85 35t86 -35t36 -86t-36 -86t-86 -35t-85 35q-34 35 -34 86zM549 866q-14 -92 -80 -280l-66 -183h291l-63 183q-68 188 -82 280zM840 0l-82 227h-418
l-80 -227h-229l401 1112h232l405 -1112h-229z" />
    <glyph glyph-name="Aring.small" horiz-adv-x="1097" 
d="M457 1415q1 -37 27 -65t63 -27q37 0 63 28q26 29 27 65q0 36 -27 62q-28 26 -64 26t-63 -26q-26 -26 -26 -63zM549 866q-14 -92 -80 -280l-66 -183h291l-63 183q-68 188 -82 280zM322 1415q0 94 65 160q66 65 160 65t161 -66q66 -66 66 -159q0 -94 -66 -161
q-66 -66 -161 -66q-94 0 -160 66q-65 67 -65 161zM840 0l-82 227h-418l-80 -227h-229l401 1112h232l405 -1112h-229z" />
    <glyph glyph-name="AE.small" horiz-adv-x="1595" 
d="M723 420v487q-60 -135 -109 -227l-145 -260h254zM1468 1112v-199h-530v-231h405v-184h-405v-299h530v-199h-745v236h-358l-132 -236h-245l645 1112h835z" />
    <glyph glyph-name="Ccedilla.small" horiz-adv-x="1165" 
d="M655 -18q-25 0 -65 4v-107q35 25 76 25q88 0 136 -56t48 -139q0 -82 -56 -143t-168 -61t-186 104l115 78l15 -17q28 -22 58 -22t48 20t18 48t-18 50t-54 22t-57 -42l-102 45v221q-173 58 -277 206t-104 339q0 242 164 409t410 167t415 -187l-149 -143q-115 125 -268 125
t-252 -106t-99 -266q0 -161 99 -264q99 -104 264 -104t278 154l164 -127q-170 -233 -453 -233z" />
    <glyph glyph-name="Egrave.small" horiz-adv-x="1042" 
d="M909 199v-199h-745v1112h745v-199h-530v-231h405v-184h-405v-299h530zM307 1454l119 127l307 -287l-117 -127z" />
    <glyph glyph-name="Eacute.small" horiz-adv-x="1042" 
d="M909 199v-199h-745v1112h745v-199h-530v-231h405v-184h-405v-299h530zM616 1581l119 -127l-309 -287l-117 127z" />
    <glyph glyph-name="Ecircumflex.small" horiz-adv-x="1042" 
d="M385 1214l-129 129l201 203h145l203 -203l-127 -129l-148 170l-49 -55q-18 -23 -55 -66t-41 -49zM909 199v-199h-745v1112h745v-199h-530v-231h405v-184h-405v-299h530z" />
    <glyph glyph-name="Edieresis.small" horiz-adv-x="1042" 
d="M606 1358q0 51 35 86t85 35t86 -35t36 -86t-36 -86t-86 -35t-85 35t-35 86zM225 1358q0 51 35 86t85 35t86 -35t36 -86t-36 -86t-86 -35t-85 35t-35 86zM909 199v-199h-745v1112h745v-199h-530v-231h405v-184h-405v-299h530z" />
    <glyph glyph-name="Igrave.small" horiz-adv-x="704" 
d="M592 0h-479v195h133v725h-133v194h479v-194h-131v-725h131v-195zM113 1464l118 127l308 -286l-117 -127z" />
    <glyph glyph-name="Iacute.small" horiz-adv-x="704" 
d="M592 0h-479v195h133v725h-133v194h479v-194h-131v-725h131v-195zM436 1591l119 -127l-309 -286l-117 127z" />
    <glyph glyph-name="Icircumflex.small" horiz-adv-x="722" 
d="M217 1204l-129 129l201 203h145l203 -203l-127 -129l-148 170l-49 -55q-18 -23 -55 -66t-41 -49zM602 0h-479v195h133v725h-133v194h479v-194h-131v-725h131v-195z" />
    <glyph glyph-name="Idieresis.small" horiz-adv-x="759" 
d="M451 1358q0 51 34 86q35 35 85 35t86 -35t36 -86t-36 -86t-86 -35t-85 35q-34 35 -34 86zM70 1358q0 51 34 86q35 35 85 35t86 -35t36 -86t-36 -86t-86 -35t-85 35q-34 35 -34 86zM618 0h-479v195h133v725h-133v194h479v-194h-131v-725h131v-195z" />
    <glyph glyph-name="Eth.small" horiz-adv-x="1163" 
d="M383 195h160q301 0 301 374q0 348 -334 349h-127v-263h227v-172h-227v-288zM168 0v483h-107v172h107v457h319q279 0 425 -141t146 -401t-123 -414q-124 -156 -386 -156h-381z" />
    <glyph glyph-name="Ntilde.small" horiz-adv-x="1138" 
d="M717 1237q-57 0 -151 40t-142 40q-49 0 -102 -53l-105 114q86 106 211 107q51 0 143 -41q93 -41 141 -41t111 63q50 -50 113 -106q-82 -123 -219 -123zM766 1112h209v-1112h-209v225l-350 467q-43 53 -51 80v-6q4 -12 4 -39l2 -51v-676h-207v1112h211l348 -481
q27 -35 47 -78l-4 92v467z" />
    <glyph glyph-name="Ograve.small" horiz-adv-x="1320" 
d="M662 180q158 0 260 108t102 270t-102 270t-261 108t-261 -108t-103 -270t103 -270t262 -108zM661 1133q243 0 411 -166t169 -409q-1 -242 -169 -410t-411 -168t-411 168t-168 410q0 243 168 409t411 166zM426 1475l119 127l307 -287l-117 -127z" />
    <glyph glyph-name="Oacute.small" horiz-adv-x="1320" 
d="M662 180q158 0 260 108t102 270t-102 270t-261 108t-261 -108t-103 -270t103 -270t262 -108zM661 1133q243 0 411 -166t169 -409q-1 -242 -169 -410t-411 -168t-411 168t-168 410q0 243 168 409t411 166zM739 1602l119 -127l-309 -287l-117 127z" />
    <glyph glyph-name="Otilde.small" horiz-adv-x="1320" 
d="M662 180q158 0 260 108t102 270t-102 270t-261 108t-261 -108t-103 -270t103 -270t262 -108zM661 1133q243 0 411 -166t169 -409q-1 -242 -169 -410t-411 -168t-411 168t-168 410q0 243 168 409t411 166zM803 1231q-57 0 -151 40t-144 40q-52 0 -100 -54l-105 115
q86 106 211 107q51 0 144 -41q92 -41 140 -41t111 63l113 -106q-82 -123 -219 -123z" />
    <glyph glyph-name="Odieresis.small" horiz-adv-x="1320" 
d="M735 1337q0 51 35 86t85 35t86 -35t36 -86t-36 -86t-86 -35t-85 36q-35 34 -35 85zM354 1337q0 51 35 86t85 35t86 -35t36 -86t-36 -86t-86 -35t-85 36q-35 34 -35 85zM662 180q158 0 260 108t102 270t-102 270t-261 108t-261 -108t-103 -270t103 -270t262 -108z
M661 1133q243 0 411 -166t169 -409q-1 -242 -169 -410t-411 -168t-411 168t-168 410q0 243 168 409t411 166z" />
    <glyph glyph-name="Oslash.small" horiz-adv-x="1320" 
d="M662 180q158 0 260 108t102 276t-117 278l-348 -649q50 -13 103 -13zM662 936q-160 0 -262 -108t-103 -279q0 -172 121 -281l348 654q-57 14 -104 14zM661 1133q243 0 411 -166t169 -409q-1 -242 -169 -410t-411 -168t-411 168t-168 410q0 243 168 409t411 166z" />
    <glyph glyph-name="Ugrave.small" horiz-adv-x="1136" 
d="M362 428q0 -120 56 -184t150 -64t150 62t56 186v684h221v-659q1 -242 -119 -358q-120 -115 -308 -115t-307 116q-120 116 -120 357v659h221v-684zM354 1454l119 127l307 -287l-116 -127z" />
    <glyph glyph-name="Uacute.small" horiz-adv-x="1136" 
d="M362 428q0 -120 56 -184t150 -64t150 62t56 186v684h221v-659q1 -242 -119 -358q-120 -115 -308 -115t-307 116q-120 116 -120 357v659h221v-684zM653 1591l119 -127l-309 -286l-117 127z" />
    <glyph glyph-name="Ucircumflex.small" horiz-adv-x="1136" 
d="M424 1184l-129 129l201 203h145l203 -203l-127 -129l-148 170l-49 -56q-18 -24 -55 -66t-41 -48zM362 428q0 -120 56 -184t150 -64t150 62t56 186v684h221v-659q1 -242 -119 -358q-120 -115 -308 -115t-307 116q-120 116 -120 357v659h221v-684z" />
    <glyph glyph-name="Udieresis.small" horiz-adv-x="1136" 
d="M641 1337q0 51 35 86t85 35t86 -35t36 -86t-36 -86t-86 -35t-85 36q-35 34 -35 85zM260 1337q0 51 35 86t85 35t86 -35t36 -86t-36 -86t-86 -35t-85 36q-35 34 -35 85zM362 428q0 -120 56 -184t150 -64t150 62t56 186v684h221v-659q1 -242 -119 -358q-120 -115 -308 -115
t-307 116q-120 116 -120 357v659h221v-684z" />
    <glyph glyph-name="Yacute.small" horiz-adv-x="960" 
d="M586 0h-217v514l-351 598h246l170 -307q8 -17 16 -33l14 -28l13 -29q0 8 43 90l174 307h248l-356 -600v-512zM535 1591l118 -127l-309 -286l-117 127z" />
    <glyph glyph-name="Thorn.small" horiz-adv-x="1024" 
d="M543 389q94 0 147 49t53 127t-54 125t-146 47h-162v-348h162zM381 0h-217v1112h217v-174h174q188 0 296 -100q107 -100 107 -272t-106 -275q-106 -102 -297 -103h-174v-188z" />
    <glyph glyph-name="g.alt" horiz-adv-x="1173" 
d="M571 799q-117 0 -191 -88q-74 -89 -75 -227t73 -228t191 -90t185 89t68 230t-67 228q-67 86 -184 86zM526 -18q-192 0 -312 143t-120 361t122 358t308 141q186 0 289 -133v115h215v-1051q0 -207 -124 -340t-312 -133q-299 0 -426 246l172 104q82 -162 248 -162
q102 0 168 76t65 211v217q-101 -153 -293 -153z" />
    <glyph glyph-name="Ocircumflex.small" horiz-adv-x="1320" 
d="M516 1204l-129 129l201 203h145l203 -203l-127 -129l-147 170l-50 -55q-18 -23 -55 -66t-41 -49zM662 180q158 0 260 108t102 270t-102 270t-261 108t-261 -108t-103 -270t103 -270t262 -108zM661 1133q243 0 411 -166t169 -409q-1 -242 -169 -410t-411 -168t-411 168
t-168 410q0 243 168 409t411 166z" />
    <glyph glyph-name="Lslash.small" horiz-adv-x="978" 
d="M184 1112h215v-391l295 88l49 -170l-344 -102v-332h475v-205h-690v473l-110 -33l-51 170l161 47v455z" />
    <glyph glyph-name="Zcaron.small" horiz-adv-x="937" 
d="M852 0h-758v170l490 750q-53 -4 -92 -5h-379v197h723v-170l-441 -688l-43 -61q35 4 72 4h428v-197zM201 1442l129 129q141 -166 145 -170q26 26 35 39l113 131l129 -129l-205 -203h-146q-56 59 -200 203z" />
    <glyph glyph-name="OE.small" horiz-adv-x="1572" 
d="M721 195v723h-96q-156 0 -243 -102t-87 -257q0 -156 75 -259t222 -105h129zM1466 199v-199h-880q-242 0 -375 159t-133 399t143 398q143 156 416 156h829v-199h-530v-231h405v-184h-405v-299h530z" />
    <glyph glyph-name="parenleft.lower" horiz-adv-x="561" 
d="M330 -219q-270 330 -271 878q0 248 68 467t201 375l166 -102q-220 -283 -220 -760t220 -762q-45 -28 -164 -96z" />
    <glyph glyph-name="parenright.lower" horiz-adv-x="561" 
d="M272 637q0 479 -217 762l166 102q270 -319 271 -856q0 -252 -70 -477t-203 -387q-119 68 -164 96q217 281 217 760z" />
    <glyph glyph-name="parenleft.small" horiz-adv-x="561" 
d="M59 560q0 228 70 435t205 355l164 -105q-222 -274 -222 -696t222 -699l-162 -98q-137 156 -207 368t-70 440z" />
    <glyph glyph-name="parenright.small" horiz-adv-x="561" 
d="M274 548q0 422 -221 697l164 105q135 -150 206 -359t71 -436t-71 -437t-206 -366l-164 98q221 276 221 698z" />
    <glyph glyph-name="numbersign.small" horiz-adv-x="1212" 
d="M496 682v-217h221v217h-221zM496 0h-183v283h-209v182h209v217h-209v182h209v248h183v-248h221v248h182v-248h201v-182h-201v-217h201v-182h-201v-283h-182v283h-221v-283z" />
    <glyph glyph-name="dollar.small" horiz-adv-x="925" 
d="M458 178q60 0 98 41t38 94t-48 99t-117 78t-139 71t-117 109q-48 70 -48 172t69 178t173 100v133h186v-133q115 -27 201 -127l-152 -125q-59 80 -143 80q-49 0 -81 -30t-32 -77q0 -48 49 -87t120 -73t143 -76t120 -117q49 -76 49 -186q-1 -110 -75 -199t-203 -113v-146
h-187v146q-102 20 -176 85q-73 65 -100 169l193 75q23 -69 71 -105t108 -36z" />
    <glyph glyph-name="percent.small" horiz-adv-x="1251" 
d="M311 782q43 0 73 30t30 72t-30 72t-73 31q-43 0 -73 -31q-30 -30 -29 -72q-1 -42 29 -72t73 -30zM311 635q-104 0 -176 73t-72 177t72 176t176 72t176 -72t72 -176t-72 -177t-176 -73zM825 227q0 -43 31 -73t73 -29q43 0 73 30q30 31 30 73t-31 72t-73 30t-72 -30
q-31 -30 -31 -73zM1178 227q0 -103 -73 -175t-176 -72t-176 72t-73 175q0 104 73 177t176 73t176 -73t73 -177zM358 0h-227l752 1112h227z" />
    <glyph glyph-name="Euro.small" horiz-adv-x="1282" 
d="M745 942q-106 0 -190 -52t-129 -142h471v-140h-512q-2 -16 -2 -54t2 -56h512v-140h-467q45 -86 128 -135t187 -49q180 0 299 162q102 -82 154 -121q-172 -233 -455 -233q-188 0 -334 104t-206 272h-140v140h109q-2 18 -2 55t2 55h-109v140h138q57 172 205 278t337 107
q246 -1 418 -187l-139 -135q-121 131 -277 131z" />
    <glyph glyph-name="sterling.small" horiz-adv-x="983" 
d="M920 184v-184h-857v184h82q22 77 7 207h-91v144h76q-6 68 -6 155q0 219 103 331q104 112 280 112q176 1 278 -99t103 -278q0 -68 -18 -144l-207 52q33 100 -7 180t-147 80q-78 0 -125 -56t-47 -135q0 -80 4 -198q148 0 295 -3v-143l-289 2l2 -51q0 -100 -18 -156h582z
" />
    <glyph glyph-name="cent.small" horiz-adv-x="882" 
d="M482 809q-99 0 -164 -71q-64 -72 -64 -182t64 -180t174 -69q108 0 176 99l145 -113q-100 -133 -248 -164v-129h-182v133q-143 33 -232 152t-89 273t88 270q90 116 233 149v137h182v-133q126 -22 230 -133l-136 -127q-78 88 -177 88z" />
    <glyph glyph-name="yen.small" horiz-adv-x="1067" 
d="M643 0h-217v201h-242v161h242v105h-242v162h203l-295 483h250l193 -371q18 43 86 166l108 205h252l-299 -483h188v-162h-227v-105h227v-161h-227v-201z" />
    <glyph glyph-name="Scaron.small" horiz-adv-x="925" 
d="M458 178q60 0 98 41t38 94t-48 99t-117 78t-139 71t-117 109q-48 70 -48 164q0 133 99 216t231 83q182 0 299 -140l-152 -125q-59 80 -143 80q-49 0 -81 -30t-32 -77q0 -48 49 -87t120 -73t143 -76t120 -117q49 -75 49 -177q0 -139 -100 -235q-101 -96 -251 -96t-253 67
q-102 68 -137 197l193 75q23 -69 71 -105t108 -36zM176 1411l129 129q141 -166 146 -170q26 26 34 39l113 131l129 -129l-205 -203h-145q-37 40 -105 108z" />
    <glyph glyph-name="M.alt" horiz-adv-x="1699" 
d="M424 0h-219v1434h219l422 -631l430 631h219v-1434h-219v1044l-430 -624l-422 620v-1040z" />
    <glyph glyph-name="M.small.alt" horiz-adv-x="1447" 
d="M383 0h-219v1112h219l336 -504l344 504h221v-1112h-219v731l-346 -498l-336 496v-729z" />
    </font>
</defs>
</svg>
