<svg xmlns="http://www.w3.org/2000/svg" xmlns:xlink="http://www.w3.org/1999/xlink" width="128" height="128">
  <path fill="#FCC21B" d="M94.58 38.59C78.33 14.24 51.17 3.14 22.38 17.78 3.11 27.59-3.58 50.85 4.79 78.2 8.24 89.48-.39 91.39.17 97.37c.09.89.31 1.76.64 2.62 2.3 7.45 14.27 13.71 30.77 16.73 6.73 1.25 14.24 1.96 22.26 1.96H54.07c29.65 0 53.68-9.54 53.68-21.31 0-.49-.06-.98-.14-1.46 1.32-23-2.87-42.09-13.03-57.32z"/>
  <path fill="#2F2F2F" d="M69.86 55.8c-.81-.67.19-1.91.62-2.48.65-.89 1.46-1.77.94-2.95-.78-1.79-2.87-1.33-4.44-1.48-.67-.04-1.36-.13-2.02-.23-.44-.07-.87-.15-1.28-.26-.96-.3-2.06-.4-2.71-1.27-.64-.88.12-1.46.94-1.69 1.64-.49 3.09.09 4.7.41 1.95.42 4.05.24 6.03.5 2.08.27 3.66 2.16 3.55 4.24-.04.8-.71 1.15.18 1.61.56.28 1.09.63 1.5 1.11 1.77 2 1.1 4.86.54 7.19-.29 1.14-.54 2.24-.68 3.4-.12.93-.5 1.95-1.61 2.12-2.15.31-2.29-2.26-2.09-3.72.16-1.13.46-2.24.78-3.34.1-.42.29-.9.32-1.34.05-.63-.13-1.3-.62-1.7-1.48-1.22-3.32.87-4.65-.12"/>
  <defs>
    <path id="a" d="M125.84 43.64c2.58-4.3 2.81-9.98-.02-14.26-2.99-4.5-8.08-6.81-13.39-5.68-1.39.29-3.02.78-3.56-1.03-1.41-4.81-3.35-9.77-8.12-12.12-4.25-2.09-10.25-1.37-14.19.94-6.86 4.05-8.56 11.73-7.11 19.1.41 2.1 1.06 4.17 1.76 6.2.67 1.95 4.14 7.83 2.15 9.76-.47.45-1.58.53-1.56 1.28.04.92 1.04 1.72 1.73 2.15 7.15 4.45 16.14 4.67 24.26 3.63 6.25-.79 14.53-4.11 18.05-9.97z"/>
  </defs>
  <use xlink:href="#a" overflow="visible" fill="#D7598B"/>
  <g>
    <g fill="#2F2F2F">
      <path d="M62.9 38.23c3 3.42 7.72 4.17 10.55 1.71 2.82-2.48 2.69-7.25-.3-10.67-2.99-3.43-7.71-4.18-10.53-1.69-2.83 2.46-2.7 7.26.28 10.65M31.42 51.98c.36-.05.71-.18 1.04-.39 6.03-4.05 12.95-6.32 13.02-6.35 1.03-.32 1.71-1.3 1.69-2.38-.03-1.09-.76-2.02-1.8-2.29-7.59-2.06-16.29-2.1-16.66-2.1-1.38 0-2.44 1.09-2.44 2.43-.01 1.35 1.09 2.44 2.44 2.45.04-.01 3.32.01 7.48.48-2.05 1-4.29 2.24-6.44 3.69-1.12.76-1.43 2.28-.67 3.39.52.8 1.44 1.18 2.34 1.07z"/>
    </g>
  </g>
</svg>
